<svg width="12" height="12" viewBox="0 0 12 12" fill="none" xmlns="http://www.w3.org/2000/svg">
<g clip-path="url(#clip0_6_2)">
<path fill-rule="evenodd" clip-rule="evenodd" d="M6 0.75C8.89922 0.75 11.25 3.10078 11.25 6C11.25 8.89922 8.89922 11.25 6 11.25C3.10078 11.25 0.75 8.89922 0.75 6C0.75 3.10078 3.10078 0.75 6 0.75ZM6 1.64062C3.59297 1.64062 1.64062 3.59297 1.64062 6C1.64062 8.40703 3.59297 10.3594 6 10.3594C8.40703 10.3594 10.3594 8.40703 10.3594 6C10.3594 3.59297 8.40703 1.64062 6 1.64062ZM7.50015 3.97062C7.50042 3.9707 7.50064 3.97083 7.50113 3.97131L8.0287 4.49887C8.02917 4.49934 8.02929 4.49958 8.02938 4.49985C8.02947 4.50011 8.02947 4.5004 8.02938 4.50067C8.0293 4.50093 8.02917 4.50115 8.02869 4.50163L6.53032 6L8.02869 7.49838C8.02892 7.49859 8.02912 7.49882 8.02928 7.49909L8.02938 7.49936C8.02947 7.49962 8.02947 7.49991 8.02938 7.50018C8.0293 7.50043 8.02917 7.50066 8.02869 7.50114L7.50113 8.02871C7.50066 8.02918 7.50042 8.0293 7.50015 8.02939C7.49989 8.02948 7.4996 8.02948 7.49933 8.02939C7.49907 8.02931 7.49885 8.02918 7.49837 8.0287L6 6.53032L4.50164 8.02869C4.50115 8.02917 4.50094 8.0293 4.50066 8.02938C4.50039 8.02947 4.5001 8.02947 4.49984 8.02938C4.49958 8.0293 4.49936 8.02917 4.49887 8.02869L3.9713 7.50113C3.97083 7.50066 3.97071 7.50042 3.97062 7.50015C3.97053 7.49989 3.97053 7.4996 3.97062 7.49933C3.9707 7.49907 3.97083 7.49885 3.97131 7.49837L5.46967 6L3.97131 4.50164C3.97108 4.50143 3.97088 4.50119 3.97072 4.50093L3.97062 4.50066C3.97053 4.50039 3.97053 4.5001 3.97062 4.49984C3.9707 4.49958 3.97083 4.49936 3.97131 4.49887L4.49887 3.9713C4.49934 3.97083 4.49958 3.97071 4.49985 3.97062C4.50011 3.97053 4.5004 3.97053 4.50067 3.97062C4.50093 3.9707 4.50115 3.97083 4.50163 3.97131L6 5.46967L7.49838 3.97131C7.49885 3.97083 7.49909 3.9707 7.49936 3.97062C7.49962 3.97053 7.49991 3.97053 7.50018 3.97062H7.50015Z" fill="#FFA500"/>
</g>
<defs>
<clipPath id="clip0_6_2">
<rect width="12" height="12" fill="white"/>
</clipPath>
</defs>
</svg>
