<svg width="750" height="750" viewBox="0 0 750 750" fill="none" xmlns="http://www.w3.org/2000/svg">
<g clip-path="url(#clip0_1_2)">
<path fill-rule="evenodd" clip-rule="evenodd" d="M722.926 313.349C714.285 377.774 704.531 411.805 647.602 479.273C590.673 546.742 330.161 591.126 233.85 591.126C137.539 591.126 18.8465 516.86 26.3375 430.811C33.8285 344.762 72.9103 274.431 166.454 265.773C262.051 256.925 346.025 297.898 439.879 275.924C521.02 256.925 545.846 184.51 601.576 161.664C714.285 115.458 728.804 269.52 722.926 313.349Z" fill="#FFB61D"/>
<path d="M664.94 344.815C661.756 350.213 621.446 377.523 596.994 381.565C592.263 382.347 587.096 382.616 582.986 380.145C580.558 378.685 578.748 376.409 577.03 374.157C573.1 369.009 569.352 363.722 565.793 358.31C563.923 355.466 562.068 352.498 561.433 349.154C559.75 340.299 566.888 332.346 573.942 326.736C590.157 313.839 609.143 304.443 629.231 299.375C632.787 298.478 636.558 297.718 640.081 298.737C645.799 300.391 649.218 306.177 651.399 311.715C653.581 317.253 655.283 323.311 659.643 327.362C660.639 328.287 668.124 339.418 664.94 344.815Z" fill="white"/>
<path fill-rule="evenodd" clip-rule="evenodd" d="M448.342 580.101C409.22 586.792 427.866 558.358 433.261 522.769C442.126 464.29 453.058 375.422 453.058 375.422C453.058 375.422 460.187 510.836 460.187 543.808C460.187 576.781 453.057 579.295 448.342 580.101Z" fill="white"/>
<path d="M406.541 547.885C407.539 557.302 408.592 566.918 412.594 575.5C410.41 556.066 408.227 536.631 406.044 517.197C405.774 514.797 405.854 511.742 408.062 510.763C409.93 532.708 412.715 554.575 416.408 576.288C416.846 578.866 412.974 580.339 410.8 578.887C408.625 577.435 407.93 574.608 407.435 572.04C403.832 553.33 401.85 534.308 401.521 515.257C396.933 516.16 393.716 520.608 392.788 525.191C391.86 529.773 392.755 534.506 393.648 539.096C396.525 553.869 399.403 568.642 402.28 583.415C403.625 590.325 404.971 597.464 403.486 604.346C397.776 578.275 393.185 551.96 389.731 525.496C345.917 552.288 289.462 557.27 241.633 538.565C231.187 534.48 220.813 529.067 213.913 520.223C208.478 513.257 205.578 504.608 204.058 495.904C198.662 464.991 209.72 433.459 224.729 405.901C230.424 395.444 236.91 384.553 236.45 372.655C236.292 368.559 235.409 364.024 237.801 360.694C238.14 361.311 222.141 246.871 228.559 221.557C244.01 160.616 294.201 152.363 326.337 153.115C347.899 153.619 484.574 180.781 504.32 217.717C530.274 266.263 524.763 307.078 520.154 333.99C518.782 342.004 453.076 374.833 453.058 374.999C449.302 409.919 424.094 486.01 402.953 514.056C404.149 525.332 405.345 536.609 406.541 547.885Z" fill="white"/>
<path fill-rule="evenodd" clip-rule="evenodd" d="M91.0617 405.795C78.7396 400.876 64.0553 402.335 52.9461 409.582C51.8706 410.283 50.3244 409.501 49.7919 408.334C49.2595 407.167 49.4587 405.809 49.731 404.556C53.2791 388.228 67.4134 375.735 83.1321 369.993C98.8508 364.252 116.044 364.236 132.753 365.217C134.411 365.315 136.144 365.444 137.559 366.313C138.973 367.183 139.924 369.041 139.219 370.542C132.647 384.539 127.695 399.293 124.496 414.418C123.977 416.87 121.436 418.497 118.933 418.702C116.43 418.906 113.978 417.983 111.706 416.914C104.628 413.582 98.3282 408.696 91.0617 405.795Z" fill="white"/>
<path fill-rule="evenodd" clip-rule="evenodd" d="M469.807 159.311C470.419 149.945 469.713 140.493 467.716 131.322L467.674 131.126C467.335 129.575 466.986 127.98 467.299 126.428C467.989 122.996 471.802 120.93 475.302 121.002C478.803 121.074 482.045 122.745 485.143 124.377C499.999 132.203 515.122 140.226 526.819 152.273C527.186 162.026 524.887 171.65 522.618 181.151L522.405 182.044C512.933 221.755 505.176 261.876 499.164 302.256C498.588 306.126 497.495 310.692 493.824 312.047C491.191 313.02 488.129 311.777 486.259 309.684C484.388 307.591 483.494 304.813 482.87 302.076C481.331 295.323 481.145 288.265 482.328 281.441C483.051 277.268 484.274 273.209 485.497 269.149L485.498 269.147C486.595 265.503 487.693 261.857 488.431 258.127C489.168 254.398 489.54 250.606 489.9 246.821C491.817 226.694 493.443 206.54 494.778 186.366C494.967 183.515 495.138 180.574 494.205 177.874C492.544 173.072 487.705 170.036 482.818 168.645C481.976 168.405 481.12 168.201 480.265 167.997C478.273 167.522 476.283 167.047 474.467 166.122C471.87 164.799 469.617 162.219 469.807 159.311ZM478.884 158.541C485.793 159.999 492.544 162.2 498.984 165.095C500.281 165.678 501.644 166.36 502.345 167.597C502.917 168.607 502.95 169.824 502.967 170.985C503.169 184.62 503.212 198.292 501.768 211.852C500.903 219.972 499.509 228.021 498.114 236.069C497.673 238.616 497.231 241.164 496.807 243.713C494.706 256.33 493.015 269.014 491.737 281.74C490.81 290.974 490.131 300.518 493.004 309.342C494.477 309.073 495.044 307.298 495.324 305.826L521.867 165.919C522.511 162.529 523.153 159.024 522.395 155.658C521.069 149.765 515.838 145.667 510.795 142.342C501.086 135.942 490.752 130.491 479.988 126.092C479.093 136.882 478.724 147.715 478.884 158.541ZM492.535 250.426C497.395 225.476 499.59 200.007 499.072 174.593C499.033 172.673 498.93 170.61 497.756 169.091C496.896 167.978 495.581 167.326 494.297 166.751C489.475 164.591 484.406 162.984 479.221 161.971C477.72 161.678 475.514 161.996 475.579 163.524L494.217 171.225C495.311 171.677 496.475 172.188 497.093 173.197C497.699 174.186 497.64 175.429 497.561 176.586L492.535 250.426ZM475.191 123.624C473.655 122.605 471.434 123.655 470.579 125.288C469.723 126.921 469.853 128.875 470.047 130.708C470.332 133.398 470.706 136.089 471.081 138.781C472.121 146.248 473.161 153.718 472.277 161.17C473.687 161.654 475.26 160.66 475.944 159.336C476.628 158.012 476.645 156.457 476.648 154.966L476.695 128.094C476.698 126.452 476.56 124.531 475.191 123.624ZM488.992 308.736C488.145 302.095 487.923 295.375 488.33 288.693C488.548 285.12 488.944 281.559 489.34 277.999C489.865 273.291 490.389 268.585 490.498 263.852C486.627 275.374 485.166 287.699 486.234 299.806C486.512 302.955 487.028 306.258 488.992 308.736ZM491.122 257.046C491.745 256.767 492.006 255.892 491.639 255.317C491.006 255.629 490.738 256.512 491.089 257.123L491.122 257.046ZM485.334 199.342C454.528 180.344 419.694 168.961 384.859 159.139C373.724 155.999 362.495 152.99 350.997 151.702C316.928 147.886 282.39 159.64 254.062 178.947C242.701 186.691 231.74 196.215 226.831 209.058C223.189 218.587 223.215 229.077 223.566 239.272C224.777 274.434 229.289 309.389 233.795 344.282C237.319 343.646 237.667 338.773 237.156 335.23C232.471 302.69 229.843 269.853 229.295 236.982C229.142 227.765 229.19 218.315 232.38 209.666C238.154 194.008 253.047 183.769 267.66 175.71C286.067 165.561 306.075 157.028 327.089 156.576C352.544 156.027 376.671 167.318 398.908 179.719C411.304 186.632 423.874 194.353 431.76 206.154C438.921 216.871 441.523 229.931 443.402 242.682C449.366 283.151 449.584 324.22 449.791 365.126C449.8 366.781 449.698 368.677 448.402 369.706C447.516 370.409 446.305 370.497 445.175 370.556L403.647 372.718C422.999 378.281 444.465 376.087 462.291 366.723L508.434 342.482C512.74 340.22 517.186 337.843 520.154 333.989C524.239 328.685 524.824 321.549 525.017 314.857C525.729 290.14 523.257 265.334 517.683 241.244C519.615 267.304 519.883 293.487 518.485 319.581C518.246 324.037 517.889 328.712 515.466 332.459C512.877 336.462 508.378 338.729 504.091 340.812L454.293 365.016C456.354 326.323 454.755 287.437 449.525 249.045C447.766 236.132 445.522 223.038 439.613 211.423C425.648 183.973 394.737 170.394 366.169 158.889C408.88 171.384 452.079 184.086 490.504 206.534C491.003 203.433 488.007 200.991 485.334 199.342ZM644.48 317.451C646.694 323.157 649.807 329.24 655.528 331.415C656.883 331.52 657.693 329.722 657.248 328.438C656.877 327.365 656.003 326.584 655.145 325.816C655.048 325.729 654.951 325.643 654.856 325.556C654.784 325.492 654.713 325.427 654.643 325.362C651.003 321.979 649.215 317.198 647.455 312.489C647.107 311.557 646.76 310.629 646.399 309.714C644.218 304.176 640.799 298.391 635.081 296.736C631.558 295.717 627.787 296.477 624.231 297.374C604.142 302.443 585.157 311.838 568.942 324.735C561.888 330.345 554.75 338.299 556.433 347.153C557.068 350.497 558.923 353.466 560.793 356.31C564.351 361.721 568.1 367.008 572.03 372.157C573.748 374.409 575.558 376.685 577.986 378.144C582.096 380.615 587.263 380.346 591.994 379.564C616.446 375.522 637.374 360.326 657.288 345.573C658.325 344.805 659.403 343.987 659.94 342.815C660.477 341.642 660.248 340.01 659.109 339.405C657.803 338.711 656.263 339.669 655.098 340.581C636.567 355.09 616.771 369.267 593.794 374.364C589.438 375.33 584.638 375.899 580.719 373.766C577.786 372.171 575.806 369.302 573.937 366.536L562.345 349.385C561.369 347.941 560.357 346.388 560.321 344.645C560.285 342.902 561.693 341.016 563.422 341.241C579.67 343.354 595.995 344.873 612.354 345.794C613.656 345.867 615.018 345.926 616.205 345.384C617.733 344.686 618.665 343.14 619.48 341.671C626.406 329.186 631.696 315.795 635.173 301.948C639.796 305.263 641.953 310.877 644.011 316.234C644.168 316.641 644.324 317.048 644.48 317.451ZM630.18 300.852C627.084 312.433 622.505 323.616 616.589 334.041C615.598 335.789 614.497 337.589 612.763 338.604C610.556 339.896 607.811 339.653 605.27 339.369L564.798 334.853C571.513 325.98 581.488 320.221 591.455 315.273C600.889 310.589 610.575 306.411 620.456 302.762C623.584 301.607 626.865 300.488 630.18 300.852ZM406.54 547.884C407.539 557.301 408.592 566.917 412.594 575.5L406.043 517.196C405.774 514.796 405.854 511.741 408.061 510.762C409.93 532.708 412.715 554.575 416.408 576.288C416.846 578.865 412.974 580.338 410.799 578.886C408.625 577.434 407.929 574.607 407.435 572.04C403.831 553.33 401.85 534.307 401.521 515.256C396.933 516.16 393.716 520.607 392.788 525.19C391.86 529.773 392.754 534.505 393.648 539.095L402.279 583.414C403.625 590.324 404.971 597.464 403.486 604.345C397.776 578.274 393.185 551.959 389.731 525.495C345.917 552.287 289.462 557.269 241.633 538.565C231.187 534.48 220.812 529.066 213.913 520.223C208.478 513.256 205.578 504.607 204.058 495.903C198.662 464.99 209.72 433.458 224.729 405.9C225.12 405.182 225.515 404.462 225.911 403.74C231.282 393.943 236.878 383.736 236.45 372.655C236.422 371.923 236.37 371.176 236.319 370.425C236.081 366.976 235.836 363.428 237.801 360.694C240.436 365.487 241.439 371.159 240.609 376.566C285.968 374.614 331.394 374.22 376.78 375.387C377.309 377.474 374.286 378.443 372.134 378.411C329.779 377.779 287.403 378.501 245.094 380.574C243.755 380.64 242.348 380.727 241.212 381.441C240.017 382.191 239.321 383.508 238.679 384.764C226.671 408.259 214.624 432.096 208.82 457.836C205.835 471.072 204.692 485.559 210.809 497.671C213.13 502.265 216.412 506.323 220.077 509.938C239.751 529.344 269.212 535.293 296.843 534.829C314.478 534.532 332.074 531.997 349.075 527.304C367.099 522.328 385.074 514.485 397.377 500.404C404.601 492.135 409.512 482.122 413.812 472.018C422.023 452.727 428.321 432.622 432.583 412.094C435.253 412.656 435.29 416.43 434.674 419.087C427.053 451.963 418.196 487.006 393.096 509.564C370.426 529.938 338.481 536.257 308.049 537.961C290.47 538.945 272.614 538.638 255.587 534.156C238.561 529.675 222.303 520.711 211.494 506.813C214.647 518.834 225.326 527.413 236.444 532.964C265.635 547.541 300.107 546.771 332.34 541.704C353.812 538.328 375.851 532.789 392.561 518.889C406.844 507.008 415.947 490.04 422.798 472.77C430.382 453.655 435.643 433.618 438.429 413.243C440.163 412.147 441.449 415.212 441.229 417.252C437.473 452.173 424.094 486.009 402.953 514.055L406.54 547.884ZM386.24 607.599C384.377 604.454 383.178 600.918 382.743 597.288L380.067 606.357L373.313 580.6C372.789 578.602 371.514 576.102 369.494 576.531C367.53 576.948 367.309 579.644 367.602 581.631C369.073 591.623 371.879 601.417 375.922 610.673L368.74 604.37C368.391 607.371 369.18 610.49 370.915 612.962C367.174 610.207 362.156 609.268 357.672 610.484C360.877 614.936 365.227 618.556 370.187 620.898L364.119 612.427C369.024 615.258 374.163 617.685 379.467 619.673L374.325 613.225L380.679 614.986C375.817 603.926 370.864 592.444 370.982 580.364C372.822 590.191 375.516 599.859 379.023 609.222C379.618 610.809 380.278 612.45 381.544 613.575C382.81 614.701 384.868 615.125 386.194 614.071C387.225 613.252 387.526 611.838 387.76 610.542L390.621 594.672L393.765 614.353C396.148 608.334 403.898 606.825 410.372 606.785C418.92 606.732 427.533 607.673 436.123 608.613H436.124H436.125C451.61 610.306 467.024 611.991 481.861 607.826C481.425 610.12 480.663 612.352 479.605 614.433C491.577 612.69 503.692 611.925 515.788 612.148C520.898 612.243 526.023 612.512 531.149 612.781C544.695 613.492 558.242 614.203 571.515 611.687L483.425 610.913C485.079 610.817 486.347 608.893 485.783 607.335C485.219 605.777 483.014 605.11 481.681 606.094C480.815 603.34 476.921 602.115 474.634 603.878C475.96 599.79 478.582 596.134 482.028 593.566C478.138 593.357 474.188 594.548 471.062 596.872L480.537 553.02C479.735 552.331 478.399 552.794 477.807 553.67C477.222 554.536 477.156 555.639 477.094 556.684L477.093 556.717C476.205 571.691 470.925 586.378 462.075 598.489L458.6 588.434L453.619 600.444C451.362 598.696 448.159 598.255 445.513 599.328C446.189 601.896 448.243 604.056 450.774 604.86L451.953 601.702L459.734 606.914C456.76 603.798 456.116 598.699 458.221 594.94L462.929 602.839L472.057 584.787C472.108 592.035 469.001 598.886 465.957 605.463C469.266 602.871 472.111 599.688 474.316 596.109C476.444 599.878 474.119 604.931 470.418 607.175C466.717 609.418 462.139 609.54 457.815 609.357C451.217 609.078 444.569 608.25 437.929 607.422C423.017 605.563 408.146 603.709 393.981 608.1L391.938 589.266C388.818 594.904 386.866 601.185 386.24 607.599ZM475.114 608.102C474.794 607.719 474.796 607.105 475.118 606.725L475.375 606.822C475.808 605.787 477.627 605.872 477.962 606.943C477.122 607.548 476.137 607.949 475.114 608.102ZM523.24 408C512.981 402.815 500.772 404.214 489.384 405.775C486.166 406.216 482.885 406.679 479.97 408.112C477.055 409.545 474.517 412.14 474.014 415.349C446.2 411.876 419.547 399.634 398.791 380.797C394.286 376.709 389.689 370.887 391.715 365.151C392.352 363.348 393.591 361.827 394.879 360.414C404.557 349.804 417.899 343.423 430.887 337.298C416.167 338.589 402.042 345.749 392.299 356.86C390.066 359.406 388.007 362.251 387.238 365.549C385.339 373.693 391.665 381.333 397.995 386.797C418.195 404.23 443.602 415.551 470.072 418.913C471.659 419.115 471.741 421.347 471.596 422.94C470.951 430.028 474.814 436.945 480.169 441.634C485.525 446.322 492.232 449.137 498.888 451.658C519.5 459.465 540.891 465.216 562.639 468.795C564.076 469.032 566.05 468.92 566.352 467.495C561.333 464.175 555.293 462.91 549.386 461.673C549.067 461.607 548.749 461.54 548.43 461.473C533.455 458.32 518.681 454.214 504.226 449.188C498.296 447.126 492.352 444.874 487.181 441.313C482.011 437.751 477.62 432.72 475.966 426.664C475.15 423.673 476.258 419.208 479.335 419.585C491.865 421.117 504.74 422.63 516.975 419.522C519.744 418.819 522.63 417.758 524.318 415.453C526.005 413.148 525.79 409.289 523.24 408ZM491.634 416.281C487.333 415.54 482.938 415.342 478.588 415.692C480.702 411.677 485.865 410.62 490.362 410.007C500.134 408.677 510.311 407.379 519.674 410.477C520.293 410.682 520.953 410.943 521.288 411.502C521.728 412.238 521.407 413.24 520.781 413.826C520.155 414.413 519.302 414.679 518.476 414.91C509.776 417.341 500.536 417.813 491.634 416.281ZM349.302 618.857C356.5 618.655 363.742 620.247 370.192 623.447C368.468 625.925 365.003 626.272 361.986 626.387L283.136 629.379C282.413 629.29 282.277 628.174 282.789 627.656C283.301 627.138 284.101 627.072 284.828 627.036L361.801 623.282C357.354 622.874 353.015 621.338 349.302 618.857ZM197.557 358.083C196.434 363.457 200.98 369.19 206.455 369.596C197.502 383.089 181.375 389.747 165.88 394.448C156.209 397.381 145.481 399.79 136.261 395.651C135.117 396.35 136.337 398.072 137.545 398.654C146.517 402.977 157.154 400.568 166.698 397.72C180.693 393.543 195.12 388.145 204.643 377.071C205.033 376.618 205.421 376.152 205.812 375.682V375.681H205.813C208.264 372.735 210.82 369.663 214.505 368.981C226.37 366.787 236.252 359.356 246.016 352.013L246.017 352.012L246.018 352.011C248.232 350.346 250.44 348.685 252.664 347.092C266.184 337.402 281.179 329.774 296.971 324.554C298.366 324.092 300.062 323.237 299.938 321.773C280.358 323.57 263.243 335.246 247.462 346.975L246.936 347.367C236.211 355.34 225.003 363.672 211.806 365.648C216.117 362.248 215.207 354.392 210.343 351.845C205.48 349.298 198.681 352.709 197.557 358.083ZM201.211 361.367C200.331 358.76 201.69 355.659 204.104 354.339C204.789 353.964 205.555 353.714 206.337 353.713C208.914 353.711 210.797 356.468 210.814 359.046C210.831 361.624 209.524 364.001 208.254 366.245C205.283 365.79 202.173 364.214 201.211 361.367ZM494.203 303.925C493.473 303.112 493.697 302.018 493.93 300.884C494.094 300.083 494.262 299.262 494.101 298.508C493.96 297.853 493.579 297.296 493.196 296.737C492.857 296.242 492.517 295.746 492.343 295.18C492.383 294.432 493.383 294.048 494.065 294.359C494.747 294.669 495.128 295.401 495.366 296.111C496.234 298.703 495.788 301.699 494.203 303.925ZM428.196 247.051C430.021 242.726 433.638 238.89 438.249 238.012C439.742 237.728 439.695 235.267 438.388 234.494C437.08 233.72 435.401 234.178 434.029 234.83C427.64 237.872 423.606 244.566 422.025 251.463C420.445 258.361 420.967 265.544 421.499 272.6L424.324 310.107C424.42 311.382 424.537 312.721 425.247 313.785C426.693 315.951 429.795 316.019 432.394 315.854L445.552 315.018C442.628 312.726 438.703 311.762 435.05 312.436C432.916 312.831 430.773 311.423 429.642 309.571C428.512 307.719 428.181 305.503 427.9 303.352C426.067 289.276 425.394 275.049 425.891 260.862C426.056 256.171 426.372 251.376 428.196 247.051ZM461.793 579.97C461.045 580.512 460.296 579.277 460.187 578.36C455.103 535.618 454.336 492.493 453.575 449.456L453.061 420.443C453.047 419.616 453.059 418.711 453.59 418.078C454.504 416.987 456.427 417.487 457.226 418.665C458.025 419.842 458.026 421.367 457.999 422.79C457.216 465.141 457.73 507.574 461.785 549.738C461.835 550.251 461.885 550.764 461.934 551.278C462.864 560.856 463.808 570.578 461.793 579.97ZM419.518 310.546C418.404 309.934 417.03 310.28 415.812 310.641C359.44 327.313 303.196 344.505 247.781 364.127C246.744 364.494 245.558 365.023 245.32 366.098C245.068 367.235 246.139 368.322 247.285 368.533C248.431 368.744 249.59 368.335 250.684 367.932C306.219 347.503 362.589 329.346 419.608 313.522C420.832 313.182 420.632 311.157 419.518 310.546Z" fill="#00160A"/>
<path fill-rule="evenodd" clip-rule="evenodd" d="M620.366 565.587C619.053 566.164 617.632 566.7 616.22 566.457C614.807 566.215 613.485 564.888 613.769 563.483C616.363 550.636 613.106 536.724 605.078 526.364C602.264 522.733 598.914 519.539 596.173 515.853C594.445 513.531 592.908 510.611 593.784 507.852C595.031 503.927 600.052 502.972 604.161 502.692C613.713 502.041 623.266 501.39 632.818 500.739C637.219 500.439 642.289 500.394 645.227 503.685C653.406 512.846 669.347 513.461 678.208 504.958C679.579 503.642 681.305 506.262 681.251 508.161C681.08 514.134 678.618 520.013 674.482 524.326C673.507 525.343 672.259 526.34 670.856 526.194C669.454 526.048 668.42 524.035 669.538 523.176C671.937 521.334 674.379 519.445 676.061 516.931C677.743 514.417 678.558 511.122 677.412 508.323C671.241 516.129 665.012 523.889 658.724 531.601C647.822 544.972 636.162 558.649 620.366 565.587ZM637.596 526.241C636.027 526.675 634.353 526.341 632.786 525.898C621.511 522.713 611.125 513.904 599.592 515.965C613.039 526.796 620.179 544.955 617.709 562.044C626.569 560.147 633.566 553.532 639.842 546.996C649.13 537.321 657.95 527.196 666.259 516.668C660.287 516.619 654.337 514.896 649.262 511.747C642.993 513.298 643.82 524.519 637.596 526.241ZM645.784 508.453C642.049 504.05 635.337 504.186 629.585 504.691C622.083 505.35 614.581 506.009 607.08 506.668C604.034 506.936 600.536 507.47 598.948 510.083C611.932 512.801 624.591 517.071 636.569 522.771C638.11 517.932 641.197 513.599 645.268 510.563C645.726 510.221 646.25 509.783 646.189 509.215C646.158 508.925 645.973 508.676 645.784 508.453Z" fill="#00160A"/>
<path fill-rule="evenodd" clip-rule="evenodd" d="M89.6081 403.455C78.3088 398.936 64.8435 400.277 54.6565 406.934C53.6703 407.578 52.2524 406.86 51.7642 405.788C51.276 404.715 51.4586 403.468 51.7083 402.317C54.9618 387.317 67.9229 375.84 82.3368 370.565C96.7506 365.291 112.517 365.276 127.839 366.178C129.359 366.267 130.948 366.386 132.245 367.185C133.542 367.983 134.415 369.69 133.768 371.069C127.741 383.928 123.201 397.482 120.267 411.376C119.791 413.629 117.461 415.124 115.166 415.312C112.871 415.5 110.622 414.651 108.539 413.669C102.048 410.609 96.2714 406.12 89.6081 403.455ZM90.8997 388.278C89.8927 389.096 88.3187 388.664 87.3712 387.778C86.4236 386.891 85.8837 385.665 85.1389 384.602C81.1437 378.903 71.9757 379.376 66.5413 383.724C61.1069 388.072 58.4772 394.943 56.0826 401.478C72.0257 394.553 91.6624 397.038 105.378 407.717C107.25 409.175 109.108 410.817 111.414 411.379C113.72 411.94 116.625 410.931 117.209 408.631C120.33 396.343 124.175 384.238 128.718 372.402C120 383.237 101.693 379.509 90.8997 388.278ZM87.4305 381.73C88.3258 382.854 89.9513 383.153 91.3664 382.899C92.7814 382.645 94.067 381.94 95.3855 381.367C99.9249 379.394 104.953 378.954 109.819 378.052C114.686 377.149 119.706 375.622 123.132 372.05C115.402 372.027 107.672 372.004 99.942 371.98C92.1737 371.957 83.8026 372.122 77.5619 376.748C81.361 376.886 85.063 378.755 87.4305 381.73Z" fill="#00160A"/>
<path fill-rule="evenodd" clip-rule="evenodd" d="M452.627 402.42C452.609 395.621 452.591 388.821 452.572 382.022C452.567 380.07 452.562 378.117 452.557 376.164C452.553 374.818 452.779 373.133 454.059 372.714C455.026 372.398 456.092 373.093 456.544 374.006C456.997 374.918 456.992 375.981 456.976 376.999C456.835 386.488 456.694 395.976 456.553 405.464C456.532 406.829 456.304 408.508 455.026 408.987C452.895 407.78 452.634 404.869 452.627 402.42Z" fill="#00160A"/>
<path fill-rule="evenodd" clip-rule="evenodd" d="M439.053 396.126C438.069 396.558 437.561 394.936 437.713 393.872C438.257 390.065 438.803 386.249 439.729 382.516C440.306 380.192 441.137 377.747 443.056 376.316C444.976 374.884 448.272 375.135 449.211 377.337C449.666 378.404 449.476 379.623 449.268 380.764C447.975 387.827 446.235 394.809 444.06 401.652C443.968 401.942 443.867 402.245 443.647 402.456C443.112 402.969 442.146 402.624 441.775 401.982C441.405 401.34 441.453 400.549 441.512 399.81C442.396 399.745 442.808 398.705 443.02 397.845C443.887 394.331 444.754 390.818 445.62 387.304C446.295 384.57 446.91 381.456 445.341 379.118C443.728 380.111 443.123 382.119 442.643 383.951C441.677 387.636 440.712 391.321 439.747 395.006C439.631 395.446 439.47 395.943 439.053 396.126Z" fill="#00160A"/>
</g>
<defs>
<clipPath id="clip0_1_2">
<rect width="750" height="750" fill="white"/>
</clipPath>
</defs>
</svg>
