<svg width="1300" height="1300" viewBox="0 0 1300 1300" fill="none" xmlns="http://www.w3.org/2000/svg">
<path d="M650 1300C290.71 1300 0 1008.86 0 650C0 290.71 291.141 0 650 0C1009.29 0 1300 291.141 1300 650C1300.43 1009.29 1009.29 1300 650 1300Z" fill="#FFA500"/>
<mask id="mask0_26_635" style="mask-type:alpha" maskUnits="userSpaceOnUse" x="0" y="0" width="1301" height="1300">
<path d="M650 1300C290.71 1300 0 1008.86 0 650C0 290.71 291.141 0 650 0C1009.29 0 1300 291.141 1300 650C1300.43 1009.29 1009.29 1300 650 1300Z" fill="#F7C0B5"/>
</mask>
<g mask="url(#mask0_26_635)">
<path d="M1014 1197.33C1010.97 1199.5 1007.5 1201.66 1004.47 1203.83C1001 1206 997.967 1208.16 994.5 1209.9C991.467 1211.63 988.867 1213.36 985.833 1215.1C985.4 1215.53 984.967 1215.53 984.534 1215.96C974.567 1222.03 964.167 1227.66 953.767 1232.86C950.733 1234.6 947.267 1236.33 944.233 1237.63C944.233 1237.63 943.8 1238.06 943.367 1238.06C939.9 1239.8 936.433 1241.53 932.967 1243.26C926.033 1246.73 918.667 1249.76 911.733 1252.8C908.267 1254.53 904.367 1255.83 900.9 1257.13C897.433 1258.43 893.533 1260.16 890.067 1261.46C886.6 1262.76 882.7 1264.5 879.233 1265.8C879.233 1265.8 879.233 1265.8 878.8 1265.8C875.333 1267.1 871.433 1268.4 867.967 1269.7C860.167 1272.3 851.933 1274.9 844.133 1277.5C841.533 1278.36 838.5 1279.23 835.9 1280.1C827.667 1282.7 819.433 1284.86 811.2 1286.6C808.167 1287.46 805.133 1287.9 801.667 1288.76C793.867 1290.5 785.633 1292.23 777.833 1293.96C776.1 1294.4 774.8 1294.4 773.067 1294.83C770.467 1295.26 767.433 1295.7 764.833 1296.13C760.933 1296.56 757.467 1297.43 753.567 1297.86C751.833 1298.3 750.1 1298.3 748.367 1298.73C746.2 1299.16 743.6 1299.6 741 1299.6C734.067 1300.46 726.7 1301.33 719.767 1302.2C717.6 1302.63 715 1302.63 712.833 1303.06H712.4C709.367 1303.5 706.333 1303.5 703.3 1303.93C700.267 1304.36 697.233 1304.36 694.2 1304.36C692.467 1304.36 690.3 1304.8 688.567 1304.8C685.1 1304.8 682.067 1305.23 679.033 1305.23C674.7 1305.23 670.8 1305.66 666.467 1305.66C662.133 1305.66 658.233 1305.66 653.9 1305.66C650.867 1305.66 647.833 1305.66 644.8 1305.66C462.367 1303.06 297.7 1225.5 180.7 1102.43C180.7 1102.43 180.7 1102 180.267 1102C193.7 1075.56 243.534 1027.9 295.534 988.465C361.4 938.632 454.567 907.865 454.567 907.865C454.567 907.865 515.667 897.898 742.3 945.132C915.2 981.532 988.867 1129.3 1014 1197.33Z" fill="#F7D3B5"/>
<path d="M790.4 1065.16C781.3 1109.8 722.367 1136.23 623.134 1096.36C501.367 1046.96 454.567 907.865 454.567 907.865C448.067 808.198 432.9 722.832 432.9 722.832C573.734 710.698 740.134 875.365 740.134 875.365L759.2 956.832C760.934 963.765 764.4 969.832 769.6 974.165C778.7 989.765 796.467 1036.56 790.4 1065.16Z" fill="#F7D3B5"/>
<path d="M769.6 974.599C686.833 970.265 625.733 958.132 560.3 840.699C615.767 889.665 681.2 908.299 750.1 916.965L759.2 956.832C760.933 964.199 764.4 970.265 769.6 974.599Z" fill="#EFBDA5"/>
<path d="M940.767 452.432C948.567 488.832 952.467 518.298 931.233 615.365C910 712.432 950.733 809.498 848.467 898.332C779.567 958.132 659.1 969.398 562.9 903.965C530.4 881.865 500.5 851.098 476.233 810.798C457.167 779.165 435.067 749.265 410.367 721.965C376.133 684.698 334.967 609.732 355.333 477.132C388.267 261.332 601.9 236.632 728 260.465C854.1 284.298 919.533 356.232 940.767 452.432Z" fill="#F7D3B5"/>
<path d="M526.067 621.865C526.067 621.865 512.633 556.865 449.367 564.665C394.767 571.598 375.7 702.465 499.633 738.865" fill="#F7D3B5"/>
<path d="M495.734 679.498C495.734 679.498 480.134 669.532 481.867 652.198C484.467 631.832 481.867 619.265 472.334 615.365C448.501 605.398 443.734 633.132 444.601 636.598" stroke="#423232" stroke-width="13" stroke-miterlimit="10" stroke-linecap="round" stroke-linejoin="round"/>
<path d="M826.367 721.532C826.367 721.532 842.833 722.398 858.433 703.765C867.1 693.365 874.467 680.365 869.7 676.465C864.933 672.132 786.5 684.265 781.3 694.665C776.1 705.065 806.433 721.532 826.367 721.532Z" fill="#EFBDA5"/>
<path d="M839.367 575.932C839.367 575.932 840.234 617.098 866.667 663.032C878.367 683.398 860.601 716.765 822.034 722.398" stroke="#423232" stroke-width="13" stroke-miterlimit="10" stroke-linecap="round" stroke-linejoin="round"/>
<path opacity="0.42" d="M604.501 743.632C629.151 743.632 649.134 727.141 649.134 706.799C649.134 686.456 629.151 669.965 604.501 669.965C579.85 669.965 559.867 686.456 559.867 706.799C559.867 727.141 579.85 743.632 604.501 743.632Z" fill="#ED938A"/>
<path opacity="0.42" d="M924.3 670.832C923 695.098 923.434 718.932 921.7 742.765C902.634 738.432 888.767 724.132 888.767 707.232C888.767 689.032 903.933 674.298 924.3 670.832Z" fill="#ED938A"/>
<path d="M1057.78 1116.61C996.25 1037.31 900.917 1004.37 848.483 984.873C844.15 963.206 835.917 939.373 822.917 916.406C802.983 928.54 780.017 937.64 756.184 942.406L759.65 956.706C761.383 963.64 770.05 995.706 756.617 1036.87C745.35 1071.54 699.85 1087.14 622.717 1052.04C472.35 984.006 455.017 907.306 455.017 907.306C452.417 865.706 448.084 826.706 444.184 795.073C397.384 805.473 343.217 826.706 313.75 871.34C277.35 925.94 263.917 981.406 267.384 1025.61C204.117 1065.91 106.184 1127.01 74.1168 1236.21C32.5168 1378.34 39.4502 1465.44 39.4502 1465.44H1159.18C1157.88 1465.87 1141.42 1224.51 1057.78 1116.61Z" fill="#329369"/>
<path d="M388.283 974.473C388.283 974.473 414.716 1077.17 530.416 1148.24" stroke="#423232" stroke-width="13" stroke-miterlimit="10" stroke-linecap="round" stroke-linejoin="round"/>
<path d="M848.05 984.873C848.05 984.873 878.817 1117.91 811.65 1179.01" stroke="#423232" stroke-width="13" stroke-miterlimit="10" stroke-linecap="round" stroke-linejoin="round"/>
<path d="M639.183 1158.64C639.183 1158.64 616.65 1224.51 622.717 1270.01" stroke="#423232" stroke-width="13" stroke-miterlimit="10" stroke-linecap="round" stroke-linejoin="round"/>
<path d="M777.417 1154.74C777.417 1154.74 794.318 1191.57 806.451 1250.07" stroke="#423232" stroke-width="13" stroke-miterlimit="10" stroke-linecap="round" stroke-linejoin="round"/>
<path d="M266.517 1026.04C266.517 1026.04 302.05 1170.77 513.517 1213.24" stroke="#423232" stroke-width="13" stroke-miterlimit="10" stroke-linecap="round" stroke-linejoin="round"/>
<path d="M626.617 1279.97L607.55 1278.24C600.617 1277.37 595.417 1270.87 596.717 1263.94L603.217 1231.44C604.95 1222.34 613.617 1215.84 622.717 1217.14C631.817 1218.01 639.183 1225.81 639.183 1235.34L639.617 1268.71C639.617 1275.21 633.55 1280.84 626.617 1279.97Z" fill="white"/>
<path d="M825.517 1260.04L807.317 1266.54C800.384 1269.14 793.017 1264.81 791.717 1257.87L783.917 1225.81C781.75 1216.71 786.517 1207.61 795.617 1204.14C804.284 1201.11 814.25 1205.01 818.15 1213.24L832.45 1243.14C835.484 1249.64 832.45 1257.44 825.517 1260.04Z" fill="white"/>
<path d="M1016.62 1250.07C1016.62 1250.07 1040.88 1386.14 1031.35 1465.87" stroke="#544D4D" stroke-width="13" stroke-miterlimit="10" stroke-linecap="round" stroke-linejoin="round"/>
<path d="M699.71 590.249C699.71 590.683 699.71 591.116 699.71 591.116L699.277 603.249C698.843 613.649 690.177 621.449 679.777 621.016C669.377 620.583 661.577 611.483 662.443 601.516L662.877 589.383C662.877 587.216 663.743 584.616 664.61 582.883L699.277 584.616C699.277 586.349 699.71 588.083 699.71 590.249Z" fill="#423232"/>
<path d="M880.841 599.783L880.408 611.049C879.975 620.583 871.742 627.949 862.208 627.516C852.675 627.083 845.308 618.849 845.742 609.316L846.175 598.049C846.175 595.883 846.608 593.716 847.475 591.983L879.975 593.283C880.842 595.449 880.841 597.616 880.841 599.783Z" fill="#423232"/>
<path d="M743.042 530.882C752.576 532.182 759.942 522.216 756.476 512.682C754.742 507.482 751.709 502.716 746.942 499.682C732.209 490.582 677.176 489.716 648.142 510.516C622.576 529.582 699.709 524.816 743.042 530.882Z" fill="#423232"/>
<path d="M863.074 535.649C855.274 535.649 850.508 525.682 854.408 517.449C856.574 513.116 859.608 509.216 863.941 507.049C877.374 500.549 913.341 504.449 929.374 526.549C943.674 546.049 899.041 535.216 863.074 535.649Z" fill="#423232"/>
<path d="M727.875 585.482L698.842 584.182L664.175 582.882L656.375 582.449" stroke="#423232" stroke-width="13" stroke-miterlimit="10" stroke-linecap="round" stroke-linejoin="round"/>
<path d="M899.042 594.149L879.975 593.283L847.475 591.983H846.175" stroke="#423232" stroke-width="13" stroke-miterlimit="10" stroke-linecap="round" stroke-linejoin="round"/>
<path d="M793.697 770.764C768.997 785.497 725.231 769.464 704.864 744.764" stroke="#423232" stroke-width="13" stroke-miterlimit="10" stroke-linecap="round" stroke-linejoin="round"/>
<path d="M338.655 486.456C321.322 612.989 378.088 700.089 408.422 736.489C443.088 778.089 446.122 809.722 446.122 809.722C463.888 799.755 486.422 755.122 486.855 731.722C378.522 690.122 398.022 569.222 450.888 562.289C506.355 555.356 523.688 604.756 526.722 616.889C540.588 600.422 539.722 506.822 555.755 448.322C485.988 473.456 412.322 486.889 338.655 486.456Z" fill="#99807F"/>
<path d="M890.722 323.523C863.855 310.523 840.888 283.223 807.088 269.789C609.488 189.623 397.588 271.523 351.222 429.689C345.155 449.623 341.255 468.689 338.655 486.889C412.322 487.323 486.422 473.456 555.755 448.756C562.688 423.623 572.655 404.556 588.688 401.089C672.322 382.889 750.755 373.789 849.988 387.223C886.822 392.423 914.988 375.523 934.055 422.323C937.088 431.423 939.688 440.523 941.855 450.056C948.788 480.823 952.255 506.823 940.555 572.689C948.355 560.123 958.322 533.256 962.655 510.289C976.522 429.256 970.022 361.656 890.722 323.523Z" fill="#423232"/>
<path d="M945.755 468.256C950.089 489.056 976.522 487.322 980.422 466.522C986.055 436.189 988.655 399.789 983.889 358.622C961.355 166.222 770.255 101.222 807.089 229.489C807.089 229.489 756.822 148.889 643.722 144.556C546.655 141.089 605.589 209.989 605.589 209.989C605.589 209.989 486.855 166.656 359.022 231.656C247.655 288.422 350.789 338.256 350.789 338.256C350.789 338.256 266.289 382.889 264.989 479.089C264.122 551.022 496.822 554.056 585.222 501.622C631.155 474.322 652.822 427.089 699.622 399.356C781.522 350.389 802.755 460.889 846.522 420.156C897.655 373.356 934.489 410.622 945.755 468.256Z" fill="#423232"/>
<path d="M477.159 636.126C477.159 636.126 442.492 630.926 445.092 679.459C446.392 704.159 446.392 717.593 445.959 724.526C445.525 729.293 448.559 733.626 452.892 735.359C458.092 737.526 463.725 735.359 466.325 730.159C470.225 723.226 474.559 713.693 474.559 705.893C474.559 692.893 488.425 681.193 488.425 681.193C488.425 681.193 475.859 670.359 477.159 636.126Z" fill="white"/>
<path d="M582.025 1471.59C578.558 1467.69 442.492 1234.99 462.858 1147.46C476.725 1087.23 458.525 1017.89 442.492 956.793C435.992 931.659 429.925 908.259 426.458 887.459C420.392 851.493 424.725 817.259 439.458 785.626C455.492 750.093 452.892 719.326 452.892 718.893L461.558 718.026C461.558 719.326 464.158 751.826 447.258 789.093C433.392 818.993 429.492 851.926 435.125 886.159C438.592 906.526 444.658 929.926 451.158 955.059C467.625 1017.03 485.825 1087.66 471.525 1150.06C452.458 1233.26 588.092 1465.96 588.958 1466.83L582.025 1471.59Z" fill="white"/>
<path d="M446.392 704.593C446.826 714.126 446.392 720.626 446.392 724.526C445.959 729.292 448.992 733.626 453.326 735.359C458.526 737.526 464.159 735.359 466.759 730.159C470.659 723.226 474.992 713.692 474.992 705.892C474.992 705.459 474.992 704.592 474.992 704.159C465.892 707.626 455.492 710.226 446.392 704.593Z" fill="#E5E5E5"/>
<path d="M854.159 992.759C851.125 1012.69 850.692 1044.33 849.825 1081.16C848.525 1152.23 806.492 1429.13 786.125 1472.89L778.325 1469.43C797.825 1426.96 839.859 1151.36 841.159 1081.16C842.025 1044.33 842.459 1012.26 845.492 991.459C851.992 947.693 847.225 914.759 844.625 900.893C845.925 899.593 847.225 898.726 848.525 897.426C849.825 896.559 850.692 895.259 851.992 894.393C854.592 905.659 861.959 941.626 854.159 992.759Z" fill="white"/>
<rect x="890.611" y="643.421" width="35.1297" height="99.0859" transform="rotate(2.13269 890.611 643.421)" fill="#F7D3B5"/>
<rect x="890.611" y="643.421" width="35.1297" height="99.0859" transform="rotate(2.13269 890.611 643.421)" fill="#F7D3B5"/>
<rect x="532" y="650" width="145" height="109" fill="#F7D3B5"/>
</g>
</svg>
