<svg width="11" height="11" viewBox="0 0 11 11" fill="none" xmlns="http://www.w3.org/2000/svg">
<path d="M5.24531 4.38823e-07C2.34727 -0.00117144 0 2.34492 0 5.24063C0 7.53047 1.46836 9.47695 3.51328 10.1918C3.78867 10.2609 3.74648 10.0652 3.74648 9.93164V9.02344C2.15625 9.20977 2.0918 8.15742 1.98516 7.98164C1.76953 7.61367 1.25977 7.51992 1.41211 7.34414C1.77422 7.15781 2.14336 7.39102 2.57109 8.02266C2.88047 8.48086 3.48398 8.40352 3.78984 8.32734C3.85664 8.05195 3.99961 7.80586 4.19648 7.61484C2.54883 7.31953 1.86211 6.31406 1.86211 5.11875C1.86211 4.53867 2.05312 4.00547 2.42812 3.57539C2.18906 2.86641 2.45039 2.25938 2.48555 2.16914C3.16641 2.1082 3.87422 2.65664 3.9293 2.7C4.31602 2.5957 4.75781 2.54063 5.25234 2.54063C5.74922 2.54063 6.19219 2.59805 6.58242 2.70352C6.71484 2.60273 7.37109 2.13164 8.00391 2.18906C8.03789 2.2793 8.29336 2.87227 8.06836 3.57188C8.44805 4.00313 8.64141 4.54102 8.64141 5.12227C8.64141 6.31992 7.95 7.32656 6.29766 7.61719C6.43918 7.75637 6.55156 7.92236 6.62822 8.10546C6.70488 8.28856 6.74429 8.4851 6.74414 8.68359V10.002C6.75352 10.1074 6.74414 10.2117 6.91992 10.2117C8.99531 9.51211 10.4895 7.55156 10.4895 5.2418C10.4895 2.34492 8.14102 4.38823e-07 5.24531 4.38823e-07Z" fill="black"/>
</svg>
