<svg width="12" height="11" viewBox="0 0 12 11" fill="none" xmlns="http://www.w3.org/2000/svg">
<path d="M5.87688 0.0845446C2.97883 0.0833727 0.631569 2.42947 0.631569 5.32517C0.631569 7.61501 2.09993 9.5615 4.14485 10.2763C4.42024 10.3455 4.37805 10.1498 4.37805 10.0162V9.10798C2.78782 9.29431 2.72337 8.24197 2.61672 8.06619C2.4011 7.69822 1.89133 7.60447 2.04368 7.42869C2.40579 7.24236 2.77493 7.47556 3.20266 8.1072C3.51204 8.5654 4.11555 8.48806 4.42141 8.41189C4.48821 8.1365 4.63118 7.8904 4.82805 7.69939C3.1804 7.40408 2.49368 6.39861 2.49368 5.20329C2.49368 4.62322 2.68469 4.09001 3.05969 3.65994C2.82063 2.95095 3.08196 2.34392 3.11712 2.25369C3.79797 2.19275 4.50579 2.74119 4.56087 2.78454C4.94758 2.68025 5.38938 2.62517 5.88391 2.62517C6.38079 2.62517 6.82376 2.68259 7.21399 2.78806C7.34641 2.68728 8.00266 2.21619 8.63547 2.27361C8.66946 2.36384 8.92493 2.95681 8.69993 3.65642C9.07962 4.08767 9.27297 4.62556 9.27297 5.20681C9.27297 6.40447 8.58157 7.41111 6.92922 7.70173C7.07075 7.84092 7.18313 8.0069 7.25979 8.19C7.33645 8.3731 7.37586 8.56964 7.37571 8.76814V10.0865C7.38508 10.192 7.37571 10.2963 7.55149 10.2963C9.62688 9.59665 11.121 7.63611 11.121 5.32634C11.121 2.42947 8.77258 0.0845446 5.87688 0.0845446Z" fill="#FFA500"/>
</svg>
