<svg width="12" height="12" fill="none" xmlns="http://www.w3.org/2000/svg"><g clip-path="url(#a)"><path d="M0 0h12v12H0V0Zm11.017 9.138c-.087-.547-.444-1.008-1.502-1.436-.367-.173-.777-.293-.898-.57-.046-.165-.053-.255-.023-.353.075-.323.458-.42.758-.33.194.06.374.21.487.45.518-.338.518-.338.878-.563-.135-.21-.202-.3-.293-.39-.315-.352-.734-.532-1.417-.516l-.352.044c-.338.082-.66.263-.855.502-.57.646-.406 1.771.284 2.236.683.51 1.68.622 1.808 1.103.12.585-.435.772-.983.705-.405-.09-.63-.293-.878-.668l-.915.525c.106.24.226.345.405.554.87.879 3.045.834 3.436-.501.014-.046.12-.353.037-.825l.023.033ZM6.526 5.516H5.402c0 .968-.005 1.931-.005 2.902 0 .616.031 1.182-.069 1.356-.165.344-.59.3-.783.24-.198-.098-.298-.233-.415-.428-.032-.053-.055-.098-.064-.098l-.912.563c.153.315.375.585.662.758.428.255 1.002.338 1.604.203.391-.114.729-.346.905-.706.255-.465.201-1.035.199-1.673.005-1.027 0-2.054 0-3.09l.002-.027Z" fill="#fff"/></g><defs><clipPath id="a"><path fill="#fff" d="M0 0h12v12H0z"/></clipPath></defs></svg>