<svg width="11" height="10" viewBox="0 0 11 10" fill="none" xmlns="http://www.w3.org/2000/svg">
<path d="M9.38476 0.29673H1.51679C1.10078 0.29673 0.763279 0.63423 0.763279 1.05025V8.91821C0.763279 9.33423 1.10078 9.67173 1.51679 9.67173H9.38476C9.80078 9.67173 10.1383 9.33423 10.1383 8.91821V1.05025C10.1383 0.63423 9.80078 0.29673 9.38476 0.29673ZM9.38476 8.92173C4.13711 8.92056 1.51328 8.91939 1.51328 8.91821C1.51445 3.67056 1.51562 1.04673 1.51679 1.04673C6.76445 1.0479 9.38828 1.04907 9.38828 1.05025C9.38711 6.2979 9.38594 8.92173 9.38476 8.92173ZM2.15312 3.81118H3.54414V8.2854H2.15312V3.81118ZM2.84922 3.19946C3.29336 3.19946 3.65547 2.83853 3.65547 2.39321C3.65547 2.28734 3.63461 2.18249 3.59409 2.08468C3.55358 1.98686 3.49419 1.89798 3.41932 1.82311C3.34445 1.74824 3.25557 1.68885 3.15775 1.64834C3.05994 1.60782 2.95509 1.58696 2.84922 1.58696C2.74334 1.58696 2.6385 1.60782 2.54068 1.64834C2.44286 1.68885 2.35398 1.74824 2.27911 1.82311C2.20424 1.89798 2.14486 1.98686 2.10434 2.08468C2.06382 2.18249 2.04297 2.28734 2.04297 2.39321C2.04179 2.83853 2.40273 3.19946 2.84922 3.19946ZM5.80586 6.07173C5.80586 5.48814 5.91719 4.92329 6.64023 4.92329C7.35273 4.92329 7.36328 5.59009 7.36328 6.10923V8.2854H8.75312V5.8315C8.75312 4.62681 8.49297 3.69985 7.08554 3.69985C6.40937 3.69985 5.95586 4.07134 5.76953 4.4229H5.75078V3.81118H4.41601V8.2854H5.80586V6.07173Z" fill="black"/>
</svg>
