<svg xmlns="http://www.w3.org/2000/svg" width="12" height="12" fill="none"><g clip-path="url(#a)"><path fill="#fff" d="M5.93 9.675a.248.248 0 0 1-.114-.03l-.36-.214c-.054-.03-.028-.041-.01-.047a.656.656 0 0 0 .164-.075c.007-.003.019-.002.026.002l.278.165c.01.006.024.006.034 0L7.03 8.85a.036.036 0 0 0 .017-.03V7.57c0-.014-.005-.025-.017-.03l-1.083-.625a.036.036 0 0 0-.034 0l-1.084.624c-.011.006-.017.02-.017.03V8.82c0 .011.008.022.017.028l.296.17c.161.081.26-.014.26-.108V7.674c0-.017.014-.032.033-.032h.137c.016 0 .032.014.032.032V8.91c0 .216-.117.338-.321.338-.062 0-.113 0-.25-.068l-.285-.163a.232.232 0 0 1-.114-.197V7.57c0-.081.043-.158.114-.198l1.084-.626c.07-.04.16-.04.227 0l1.084.626c.07.042.114.117.114.197V8.82c0 .08-.043.157-.114.197l-1.084.626a.208.208 0 0 1-.112.032Zm.876-1.234c0-.234-.157-.296-.491-.341-.338-.045-.371-.067-.371-.146 0-.066.028-.152.277-.152.223 0 .306.049.34.199.003.015.015.024.03.024h.14c.01 0 .017-.004.023-.01.005-.007.01-.014.007-.024-.022-.258-.193-.378-.54-.378-.31 0-.493.13-.493.348 0 .238.184.302.48.332.354.036.383.086.383.156 0 .122-.098.172-.327.172-.287 0-.35-.071-.37-.213-.003-.015-.016-.027-.033-.027h-.14a.032.032 0 0 0-.032.032c0 .182.1.4.574.4.346 0 .543-.136.543-.372Zm1.022-.94a.209.209 0 0 1-.208.209.209.209 0 0 1-.208-.208c0-.118.097-.208.208-.208a.206.206 0 0 1 .208.208Zm-.034 0a.174.174 0 0 0-.176-.174.176.176 0 0 0 0 .35.178.178 0 0 0 .176-.175Zm-.084.117h-.049a2.708 2.708 0 0 1-.01-.073c-.003-.013-.007-.02-.023-.02h-.042v.093h-.045v-.234h.08c.029 0 .083 0 .083.062 0 .043-.028.052-.045.058.032.002.034.022.04.052.002.019.005.05.011.062Zm-.053-.165c0-.032-.022-.032-.033-.032h-.038v.066h.036c.03 0 .035-.02.035-.034ZM2.574 4.781a.136.136 0 0 0-.069-.12L1.355 4a.148.148 0 0 0-.063-.018H1.28a.132.132 0 0 0-.064.018l-1.148.662a.139.139 0 0 0-.069.12l.002 1.782c0 .024.013.046.034.06.02.013.047.013.069 0l.682-.392a.14.14 0 0 0 .07-.12v-.833c0-.049.026-.095.07-.12l.29-.167a.133.133 0 0 1 .07-.018c.024 0 .048.005.069.018l.29.167c.043.024.07.071.07.12v.833c0 .048.026.095.069.12l.682.391c.021.014.05.014.07 0a.07.07 0 0 0 .034-.06l.003-1.78ZM8.86 2.837v3.307a.139.139 0 0 1-.069.12l-1.15.664a.14.14 0 0 1-.138 0l-1.15-.664a.139.139 0 0 1-.069-.12V4.817c0-.049.026-.096.07-.12l1.149-.664a.14.14 0 0 1 .139 0l.287.165A.05.05 0 0 0 8 4.157V2.394c0-.052.056-.086.103-.06l.684.383c.043.022.071.07.071.12Zm-.862 2.417a.035.035 0 0 0-.017-.03l-.394-.229a.04.04 0 0 0-.035 0l-.394.229c-.011.005-.017.017-.017.03v.455c0 .014.008.025.017.03l.394.227a.036.036 0 0 0 .033 0l.394-.227c.011-.005.017-.016.017-.03v-.455h.002Zm3.934-.013A.138.138 0 0 0 12 5.12V4.8a.138.138 0 0 0-.07-.12l-1.141-.664a.14.14 0 0 0-.139 0L9.5 4.68a.139.139 0 0 0-.069.12v1.328c0 .05.027.095.07.12l1.142.65a.137.137 0 0 0 .136 0l.69-.384a.069.069 0 0 0 0-.12l-1.156-.664a.07.07 0 0 1-.036-.06v-.416a.07.07 0 0 1 .036-.06l.36-.208a.066.066 0 0 1 .069 0l.36.208c.02.013.035.035.035.06v.326a.07.07 0 0 0 .105.06l.689-.4Zm-1.45.065c-.007.006-.013.013-.013.023v.255c0 .01.006.019.013.022l.222.128a.023.023 0 0 0 .026 0l.221-.128c.008-.005.013-.013.013-.022v-.255a.026.026 0 0 0-.013-.023l-.221-.127a.023.023 0 0 0-.026 0l-.222.127Zm-4.766.816v-1.32a.142.142 0 0 0-.073-.12l-1.146-.66a.14.14 0 0 0-.139 0l-1.145.66a.14.14 0 0 0-.073.12v1.32c0 .052.035.097.075.12l1.147.66a.136.136 0 0 0 .139 0l1.144-.66a.14.14 0 0 0 .071-.12ZM4.322 3.78l-.015.01h.02l-.005-.01ZM5.75 6.221l-.008-.013v.017l.008-.004Z"/></g><defs><clipPath id="a"><path fill="#fff" d="M0 0h12v12H0z"/></clipPath></defs></svg>