<svg xmlns="http://www.w3.org/2000/svg" width="12" height="12" fill="none"><path fill="#fff" d="M6 6.515A.893.893 0 1 0 6 4.73a.893.893 0 0 0 0 1.785ZM3.501 7.397l-.197-.05C1.837 6.976.994 6.345.994 5.62c0-.726.842-1.355 2.308-1.726l.198-.05.056.196c.148.512.338 1.01.568 1.492l.042.088-.042.09c-.23.481-.421.98-.568 1.492l-.056.195Zm-.288-3.048c-1.115.314-1.8.793-1.8 1.271 0 .478.685.957 1.8 1.27.136-.433.301-.858.492-1.27a10.179 10.179 0 0 1-.493-1.27Zm5.285 3.048-.054-.196a9.814 9.814 0 0 0-.569-1.492l-.043-.088.043-.09c.23-.48.42-.98.569-1.492l.054-.195.198.05c1.468.37 2.309 1 2.309 1.726s-.842 1.356-2.309 1.726l-.197.051ZM8.294 5.62c.2.433.366.86.493 1.27 1.115-.313 1.8-.792 1.8-1.27s-.684-.956-1.8-1.27c-.136.434-.301.858-.494 1.27Z"/><path fill="#fff" d="m3.21 4.348-.055-.196c-.413-1.454-.288-2.495.343-2.858.617-.358 1.611.065 2.651 1.132l.143.146-.143.146c-.37.384-.707.798-1.01 1.237l-.056.081-.098.008a9.823 9.823 0 0 0-1.579.255l-.197.048ZM4 1.583a.583.583 0 0 0-.294.073c-.414.238-.487 1.069-.202 2.19.446-.099.895-.17 1.348-.209.262-.372.548-.727.856-1.062-.651-.633-1.266-.992-1.708-.992ZM8 10.075c-.594 0-1.357-.448-2.149-1.261l-.141-.146.141-.144c.37-.385.708-.8 1.01-1.239l.056-.08.097-.01a9.736 9.736 0 0 0 1.58-.253l.197-.05.056.196c.41 1.452.286 2.496-.345 2.859a.99.99 0 0 1-.502.128Zm-1.707-1.41c.65.634 1.266.993 1.707.993a.586.586 0 0 0 .295-.072c.414-.24.487-1.072.201-2.192-.444.098-.894.17-1.348.209-.262.373-.547.727-.856 1.062Z"/><path fill="#fff" d="m8.79 4.348-.197-.05a9.74 9.74 0 0 0-1.58-.255l-.096-.008-.056-.081A9.776 9.776 0 0 0 5.85 2.717l-.141-.146.141-.145C6.89 1.36 7.883.937 8.502 1.294c.63.363.756 1.405.343 2.858l-.055.196Zm-1.643-.711c.476.042.928.114 1.348.208.286-1.12.213-1.951-.201-2.19-.413-.238-1.188.127-2.003.92.308.335.595.69.855 1.062ZM4 10.075a.991.991 0 0 1-.502-.128c-.632-.363-.757-1.406-.344-2.86l.054-.195.197.05a9.763 9.763 0 0 0 1.58.253l.096.01.057.08c.302.439.64.854 1.01 1.239l.142.145-.142.145c-.792.813-1.554 1.261-2.147 1.261Zm-.496-2.681c-.285 1.121-.212 1.953.202 2.192.413.235 1.185-.127 2.002-.921-.308-.335-.594-.69-.856-1.061-.453-.04-.904-.11-1.348-.21Z"/><path fill="#fff" d="M6 7.657c-.343 0-.696-.015-1.05-.045l-.098-.008-.057-.081c-.2-.287-.387-.582-.563-.885a13.012 13.012 0 0 1-.485-.929l-.042-.088.042-.09c.15-.316.311-.626.486-.929.173-.298.363-.596.563-.885l.056-.08.098-.009c.698-.058 1.4-.058 2.099 0l.097.01.056.08c.4.574.752 1.18 1.05 1.814l.042.089-.042.088a12.37 12.37 0 0 1-1.05 1.815l-.056.08-.097.009c-.353.028-.706.043-1.049.043Zm-.917-.452c.617.046 1.216.046 1.833 0 .345-.505.651-1.034.916-1.585-.264-.55-.57-1.08-.915-1.583a11.939 11.939 0 0 0-1.834 0 11.872 11.872 0 0 0-.916 1.583c.266.55.572 1.08.916 1.585Z"/></svg>