<svg width="10" height="12" viewBox="0 0 10 12" fill="none" xmlns="http://www.w3.org/2000/svg">
<path d="M6.87006 0C6.83506 0 6.81306 0.017 6.78806 0.0475C6.76293 0.0765995 6.74635 0.112098 6.74017 0.150052C6.73399 0.188006 6.73845 0.22693 6.75306 0.2625C6.84806 0.4675 6.93456 0.6775 7.01706 0.8875C7.02206 0.8975 7.02806 0.9075 7.03656 0.9215C7.01656 0.9205 7.01156 0.9105 7.00506 0.9C6.85656 0.745 6.68106 0.6215 6.50606 0.498C6.26956 0.3295 6.01106 0.1965 5.75456 0.062C5.72135 0.0443037 5.68501 0.0332637 5.64756 0.0295L5.45556 0.0095C5.35456 -0.003 5.27806 0.0545 5.27806 0.1555C5.27806 0.2095 5.25506 0.2215 5.21056 0.2255C5.17056 0.2275 5.11706 0.283 5.11256 0.3215C5.1044 0.378497 5.11054 0.43663 5.13044 0.490661C5.15034 0.544691 5.18338 0.59292 5.22656 0.631C5.44856 0.8385 5.66306 1.0535 5.87806 1.2685L5.88556 1.272C5.89168 1.27713 5.89648 1.28364 5.89956 1.291C5.89606 1.2925 5.89256 1.2925 5.88956 1.2925C5.88256 1.29115 5.87631 1.28723 5.87206 1.2815C5.87106 1.2805 5.86956 1.279 5.86956 1.278C5.83856 1.26 5.80606 1.243 5.77606 1.223C5.62606 1.123 5.47856 1.021 5.32856 0.924C5.26059 0.875796 5.18106 0.846467 5.09806 0.839C5.06206 0.834335 5.02545 0.838395 4.99134 0.850839C4.95723 0.863283 4.92661 0.883745 4.90206 0.9105C4.88474 0.926229 4.87164 0.946049 4.86396 0.968147C4.85627 0.990245 4.85424 1.01392 4.85806 1.037C4.86606 1.11 4.91556 1.1555 4.96956 1.193C5.22056 1.362 5.44456 1.56 5.65256 1.78C5.67056 1.799 5.68956 1.8195 5.71006 1.836C5.76906 1.884 5.80506 1.948 5.84106 2.014C5.85756 2.044 5.85106 2.051 5.81956 2.051C5.60556 2.051 5.40156 2.11 5.19656 2.153C5.11256 2.171 5.02956 2.2 4.99956 2.293C4.96706 2.398 4.95156 2.457 5.07956 2.489C5.33457 2.55436 5.58375 2.64065 5.82456 2.747C5.84563 2.75729 5.86528 2.77023 5.88306 2.7855C5.94306 2.8375 5.99806 2.895 6.06406 2.937C6.25406 3.0605 6.44906 3.176 6.67406 3.2285C6.70056 3.2345 6.72406 3.248 6.74906 3.2535C6.77406 3.261 6.79156 3.2755 6.79656 3.3005C6.81106 3.3895 6.86606 3.44 6.94906 3.4655C6.95906 3.4685 6.96806 3.4755 6.97906 3.4795C7.00506 3.488 7.01706 3.507 7.02556 3.5335C7.05906 3.6535 7.09406 3.7725 7.13156 3.891C7.14456 3.931 7.13256 3.941 7.09656 3.9525C6.91056 4.0065 6.72556 4.0625 6.54056 4.1195C6.47456 4.1395 6.47356 4.141 6.50706 4.201L6.96106 5.0185C7.02456 5.1335 7.02706 5.1335 7.14356 5.0735C7.15556 5.0675 7.17206 5.047 7.18306 5.0665C7.19306 5.0845 7.21306 5.111 7.19506 5.1315C7.13856 5.196 7.10006 5.2715 7.05206 5.3415C7.03656 5.364 7.03656 5.3785 7.04956 5.4C7.09956 5.483 7.15056 5.567 7.19956 5.651C7.20556 5.6605 7.21656 5.6725 7.21456 5.68L7.15306 5.8635C7.11907 5.73669 7.0656 5.61592 6.99456 5.5055C6.90456 5.3615 6.78956 5.2345 6.68456 5.1C6.66806 5.08 6.64856 5.0615 6.62956 5.0425C6.52956 4.939 6.40156 4.8765 6.27956 4.8035C6.22712 4.7724 6.16955 4.7509 6.10956 4.74C5.92256 4.7 5.73656 4.685 5.54956 4.742C5.51206 4.754 5.49156 4.7445 5.46906 4.712C5.42306 4.6485 5.38606 4.5755 5.32406 4.526C5.17406 4.406 5.01606 4.297 4.83156 4.2345C4.69242 4.18501 4.54662 4.15669 4.39906 4.1505C4.3218 4.14914 4.24452 4.15198 4.16756 4.159C3.96956 4.174 3.77256 4.196 3.59756 4.3055C3.56256 4.327 3.52256 4.339 3.48706 4.3595C3.30706 4.4565 3.12906 4.5525 2.97906 4.699C2.82183 4.8488 2.67215 5.00633 2.53056 5.171C2.36956 5.363 2.24806 5.58 2.13906 5.8045C2.13156 5.8195 2.12806 5.8395 2.10406 5.8525L2.04406 5.4805C2.04056 5.4575 2.05506 5.459 2.07056 5.4615C2.11506 5.4665 2.15806 5.4685 2.20256 5.4745C2.23606 5.4795 2.25406 5.472 2.26256 5.4345C2.27356 5.3835 2.28556 5.3315 2.29606 5.279C2.33706 5.0805 2.39606 4.889 2.44756 4.694C2.45756 4.657 2.45106 4.644 2.41256 4.634C2.22206 4.589 2.03106 4.538 1.84006 4.4925C1.80406 4.484 1.78706 4.471 1.79806 4.4325C1.84156 4.2835 1.86056 4.1275 1.91906 3.9825C1.92388 3.96555 1.93363 3.95041 1.94706 3.939C1.99606 3.901 2.03206 3.8565 2.02706 3.788C2.02356 3.7365 2.04756 3.704 2.09706 3.681C2.18806 3.638 2.27606 3.5875 2.36206 3.537C2.4312 3.49806 2.48789 3.44033 2.52556 3.3705C2.68656 3.068 2.82056 2.7495 3.01556 2.4655C3.03206 2.44 3.04556 2.4125 3.06556 2.3905C3.19156 2.2585 3.30956 2.1185 3.45106 2.0005C3.49556 1.9635 3.50756 1.913 3.50856 1.858C3.50856 1.794 3.47156 1.7495 3.43306 1.7055C3.39556 1.662 3.35756 1.625 3.29356 1.632C3.27956 1.6335 3.26506 1.627 3.24956 1.625C3.25906 1.605 3.27456 1.601 3.28756 1.5925C3.45706 1.4835 3.62606 1.374 3.79556 1.2635C4.00056 1.1315 4.20506 0.9985 4.41156 0.8665C4.43756 0.8495 4.44956 0.8365 4.42106 0.8115C4.41356 0.805 4.40906 0.7965 4.40306 0.7895C4.36106 0.74 4.36106 0.74 4.30306 0.7745L2.58206 1.8465C2.53156 1.8775 2.53156 1.8775 2.50606 1.8215C2.45006 1.69 2.41756 1.5515 2.37556 1.4165C2.36556 1.3855 2.37406 1.3675 2.39806 1.348C2.54256 1.233 2.67456 1.103 2.80806 0.977C2.8599 0.928219 2.89283 0.862699 2.90106 0.792C2.91206 0.707 2.85606 0.6625 2.77906 0.694C2.74102 0.708834 2.70409 0.726379 2.66856 0.7465C2.32856 0.934 1.96606 1.0625 1.59406 1.1705C1.57256 1.1765 1.55306 1.1835 1.53506 1.1605C1.49806 1.1155 1.44256 1.0905 1.39606 1.0565C1.39174 1.05291 1.38665 1.05037 1.38119 1.04907C1.37573 1.04776 1.37004 1.04774 1.36456 1.049C1.31456 1.0625 1.26256 1.077 1.23156 1.1225C1.15206 1.239 1.05256 1.3425 0.978064 1.4635C0.893064 1.6035 0.811564 1.7445 0.715564 1.8775C0.697564 1.9025 0.690564 1.9065 0.673564 1.8765L0.355064 1.3175C0.32197 1.25858 0.284709 1.20211 0.243564 1.1485C0.196564 1.0895 0.139064 1.0605 0.064564 1.0685C0.051564 1.0705 0.034564 1.0665 0.029564 1.087C0.019564 1.142 -0.00543606 1.2 0.00106394 1.253C0.0180639 1.388 0.042064 1.524 0.076064 1.656C0.133064 1.8855 0.198064 2.112 0.266064 2.338C0.332564 2.56 0.407064 2.778 0.479064 2.9995C0.485064 3.0185 0.495564 3.0355 0.469064 3.051C0.435564 3.07 0.381564 3.08 0.375564 3.1135C0.369564 3.1485 0.400564 3.1885 0.415564 3.226L0.419064 3.2345C0.431064 3.2635 0.437064 3.3065 0.459064 3.3175C0.487564 3.332 0.514064 3.2925 0.540064 3.2765C0.564064 3.2615 0.572564 3.266 0.583564 3.291C0.645564 3.4375 0.709564 3.5825 0.773564 3.729C0.783563 3.75054 0.784642 3.77517 0.776564 3.7975C0.733802 3.91437 0.701672 4.03486 0.680564 4.1575C0.674564 4.1925 0.661564 4.1925 0.635564 4.185C0.496704 4.14944 0.357703 4.11444 0.218564 4.08C0.157064 4.064 0.157064 4.064 0.150064 4.1265V4.1315C0.120064 4.464 0.0900639 4.7965 0.0585639 5.1285C0.0565639 5.1585 0.060064 5.171 0.092564 5.1745C0.189564 5.1865 0.285564 5.202 0.381564 5.2165C0.399564 5.219 0.415064 5.22 0.410564 5.2465C0.389064 5.359 0.372064 5.473 0.348064 5.585C0.344039 5.59894 0.343484 5.61366 0.346447 5.62786C0.34941 5.64207 0.355801 5.65533 0.365064 5.6665L0.465064 5.7985C0.487564 5.83 0.505064 5.8705 0.483564 5.903C0.472058 5.92047 0.46629 5.9411 0.467064 5.962C0.470564 6.1695 0.470564 6.377 0.480064 6.585C0.485064 6.685 0.483564 6.7865 0.486064 6.8875C0.491064 7.155 0.506064 7.4215 0.516064 7.689C0.521064 7.82 0.498064 7.949 0.504064 8.0805C0.505064 8.113 0.512564 8.1305 0.546064 8.1415C0.626064 8.1665 0.702064 8.1995 0.782564 8.2245C0.802834 8.22976 0.821667 8.23949 0.837676 8.25299C0.853684 8.26649 0.866461 8.28341 0.875064 8.3025C0.890751 8.33675 0.897297 8.37447 0.894064 8.412C0.893064 8.448 0.906064 8.4695 0.935064 8.49C1.05856 8.5785 1.18106 8.67 1.30506 8.761C1.63006 9.001 1.95506 9.2425 2.28206 9.481C2.31206 9.5035 2.31906 9.5215 2.30106 9.554C2.28406 9.585 2.27356 9.6215 2.25656 9.6525C2.24206 9.6815 2.24456 9.6995 2.27206 9.7195C2.31306 9.7485 2.35256 9.781 2.39006 9.8135C2.42256 9.841 2.42356 9.884 2.41406 9.9175C2.40656 9.9425 2.37056 9.92 2.34806 9.9175C2.33206 9.9165 2.31656 9.9125 2.30106 9.9105C2.14606 9.8855 1.99256 9.8455 1.83506 9.8325C1.58506 9.8125 1.33356 9.7905 1.08006 9.7975C1.06706 9.7975 1.04656 9.7855 1.04306 9.8125C1.03956 9.8335 1.03456 9.8565 1.05856 9.871C1.07056 9.878 1.08356 9.884 1.09706 9.889C1.23856 9.938 1.37056 10.009 1.50056 10.084C1.58456 10.1315 1.66706 10.1855 1.75956 10.218C1.77656 10.224 1.79356 10.237 1.81356 10.219C1.67456 10.109 1.53656 9.998 1.39706 9.8865C1.41706 9.872 1.43206 9.878 1.44706 9.8795C1.61306 9.8925 1.77906 9.9155 1.94106 9.9545C2.29756 10.0395 2.65156 10.135 3.00206 10.2405C3.11706 10.2755 3.23956 10.2925 3.34306 10.362C3.36806 10.3785 3.38306 10.3955 3.38006 10.427C3.38606 10.434 3.39356 10.4435 3.38506 10.4495C3.37506 10.4555 3.36706 10.4435 3.36006 10.4375C3.27806 10.4305 3.19656 10.4245 3.11606 10.416C2.88456 10.393 2.65406 10.361 2.42006 10.368C2.24506 10.373 2.06956 10.3605 1.89506 10.373C1.64806 10.3895 1.40056 10.422 1.15506 10.448C1.14256 10.4495 1.12356 10.447 1.12356 10.4615C1.12356 10.4795 1.13056 10.5 1.15356 10.505C1.17216 10.5088 1.19108 10.5109 1.21006 10.511C1.33506 10.516 1.45856 10.5145 1.58306 10.5165C1.89306 10.524 2.20406 10.5105 2.51306 10.537C2.62506 10.547 2.73806 10.542 2.84706 10.562C3.36206 10.6585 3.87456 10.759 4.38606 10.871C4.44606 10.884 4.50756 10.8935 4.56606 10.9225C4.53856 10.9475 4.50256 10.955 4.48706 10.991C4.37706 11.244 4.30556 11.511 4.22206 11.7725C4.20706 11.8175 4.23706 11.8685 4.28206 11.8805C4.30088 11.886 4.32064 11.8875 4.34006 11.8848C4.35947 11.8821 4.3781 11.8753 4.39472 11.865C4.41134 11.8546 4.42558 11.8408 4.43649 11.8245C4.44741 11.8082 4.45476 11.7898 4.45806 11.7705C4.46806 11.716 4.47756 11.662 4.48456 11.6065C4.48706 11.5885 4.49306 11.579 4.51106 11.573C4.57706 11.5465 4.64106 11.519 4.70756 11.493C4.80533 11.4563 4.89512 11.4011 4.97206 11.3305C5.03906 11.267 5.09556 11.1935 5.09706 11.0955C5.09706 11.0655 5.10406 11.046 5.12806 11.028C5.23806 10.943 5.33706 10.8455 5.43306 10.746C5.52703 10.6506 5.62726 10.5616 5.73306 10.4795C5.74506 10.4695 5.75456 10.4555 5.77306 10.4625L6.05306 10.573C5.86606 10.687 5.68806 10.7965 5.51206 10.903C5.50356 10.908 5.49406 10.9105 5.48556 10.913C5.42186 10.9322 5.36382 10.9667 5.31656 11.0135C5.12906 11.1995 5.03306 11.4205 5.04406 11.6885C5.05106 11.8685 5.15406 11.9535 5.32906 11.9135C5.63706 11.841 5.89906 11.5465 5.94556 11.2235C5.95756 11.1335 5.97156 11.045 5.90706 10.967C5.87933 10.9328 5.84961 10.9002 5.81806 10.8695C5.82806 10.8635 5.83256 10.86 5.83756 10.8565C6.22606 10.625 6.65006 10.4675 7.07506 10.3215C7.59506 10.142 8.12506 9.9995 8.65706 9.8625L8.61956 9.854C8.58456 9.8575 8.55156 9.8615 8.51656 9.864C8.36957 9.87369 8.22369 9.89611 8.08056 9.931L8.07256 9.9345C8.05761 9.94031 8.04159 9.94287 8.02556 9.942C8.01856 9.942 8.01056 9.942 8.00156 9.943C8.03406 9.912 8.12756 9.811 8.15306 9.818L8.15406 9.8155H8.15656C8.15656 9.812 8.16606 9.8055 8.16606 9.8055C8.17456 9.7905 8.18606 9.781 8.20306 9.7805C8.22932 9.74279 8.2628 9.71067 8.30156 9.686C8.32656 9.671 8.35306 9.655 8.38156 9.643H8.38106C8.46106 9.643 8.54056 9.546 8.62406 9.512C8.62356 9.509 8.61906 9.507 8.61756 9.5035C8.49756 9.5205 8.37956 9.5395 8.26456 9.5835C8.01856 9.674 7.76406 9.745 7.52406 9.8505C7.15306 10.0125 6.78306 10.1745 6.42656 10.368C6.41405 10.3747 6.4012 10.3807 6.38806 10.386L6.36056 10.134C6.35806 10.117 6.36656 10.11 6.38056 10.1025C6.69656 9.9355 7.01356 9.77 7.34356 9.6335C7.61506 9.5205 7.88356 9.3985 8.15656 9.288C8.15756 9.2855 8.15906 9.283 8.16156 9.283H8.16356C8.16506 9.283 8.16506 9.2845 8.16606 9.2845C8.16956 9.2905 8.16706 9.2945 8.16356 9.2975C8.16256 9.299 8.16106 9.299 8.15856 9.3H8.15756C8.08331 9.40263 8.02092 9.51334 7.97156 9.63C7.99056 9.635 7.99806 9.6285 8.00506 9.621C8.06156 9.561 8.11806 9.5025 8.17306 9.4425C8.28006 9.3255 8.39306 9.2135 8.52506 9.1225C8.53356 9.1165 8.54756 9.1115 8.54156 9.0985C8.53456 9.0835 8.51906 9.091 8.50806 9.0935C8.38456 9.1185 8.26106 9.1415 8.13806 9.1705C8.09756 9.18 8.10006 9.1655 8.09806 9.137C8.09756 9.0385 8.11206 8.942 8.11556 8.844C8.11675 8.80129 8.12662 8.75927 8.14456 8.7205C8.19356 8.6075 8.24306 8.4955 8.29306 8.383C8.31806 8.3265 8.33306 8.2665 8.34256 8.2065C8.35756 8.1105 8.37006 8.0135 8.37956 7.9165C8.39456 7.7665 8.44806 7.6265 8.47306 7.479C8.50556 7.292 8.53206 7.1035 8.60156 6.924C8.66406 6.766 8.72406 6.6075 8.78756 6.4505C8.87556 6.2365 8.98706 6.034 9.04006 5.8055C9.05806 5.7265 9.07806 5.6545 9.04206 5.5765C9.02206 5.5345 9.01606 5.4865 9.00156 5.441C8.99058 5.40813 8.98851 5.37293 8.99556 5.339C9.01956 5.2165 9.03056 5.095 8.96406 4.981C8.94606 4.95 8.96806 4.931 8.98606 4.911C9.03006 4.866 9.03256 4.8455 8.99406 4.796C8.95006 4.741 8.90656 4.6845 8.85906 4.633C8.81906 4.591 8.78206 4.5455 8.74206 4.502C8.71456 4.4855 8.71706 4.4745 8.74806 4.464C8.81806 4.44 8.88606 4.41 8.95706 4.388C8.99706 4.376 9.00706 4.353 9.01006 4.3175C9.03256 4.015 9.05506 3.711 9.07956 3.4085C9.08306 3.3665 9.07606 3.3585 9.03256 3.3715C8.80556 3.4435 8.57906 3.5115 8.35106 3.5825C8.28106 3.6045 8.28006 3.6045 8.24906 3.536C8.13356 3.276 8.04356 3.0075 7.94906 2.741C7.93865 2.71586 7.93358 2.68883 7.93418 2.66163C7.93479 2.63443 7.94105 2.60765 7.95256 2.583C7.98606 2.489 7.96456 2.3945 7.96206 2.2995C7.9605 2.29465 7.95966 2.2896 7.95956 2.2845C7.93941 2.02351 7.89692 1.76473 7.83256 1.511C7.77357 1.29054 7.6897 1.0775 7.58256 0.876C7.46856 0.66 7.34606 0.446 7.21406 0.2385C7.15756 0.1495 7.09756 0.069 6.99706 0.025C6.95665 0.00886566 6.91358 0.000388211 6.87006 0ZM5.54906 0.13C5.58416 0.128673 5.61889 0.13753 5.64906 0.1555C5.89968 0.278827 6.14475 0.413124 6.38356 0.558C6.50706 0.637 6.62456 0.727 6.74106 0.818C6.79606 0.8615 6.83706 0.9265 6.88306 0.983C6.90206 1.0065 6.88906 1.028 6.87106 1.045C6.85906 1.057 6.84206 1.0645 6.82756 1.0725C6.81206 1.0835 6.79156 1.0925 6.79756 1.116C6.80256 1.136 6.82506 1.141 6.84256 1.145C6.86937 1.15068 6.89728 1.14806 6.92256 1.1375C7.00656 1.1025 7.07756 1.1615 7.13156 1.2205C7.14556 1.2355 7.15156 1.267 7.17806 1.2575C7.20556 1.247 7.20956 1.217 7.20706 1.189C7.20106 1.114 7.18206 1.0405 7.16506 0.967C7.12006 0.7785 7.03006 0.608 6.95606 0.4305C6.92956 0.367 6.90106 0.3035 6.87456 0.2395C6.85956 0.2045 6.87956 0.1735 6.89856 0.1485C6.91356 0.1285 6.93856 0.146 6.95956 0.1555C7.03556 0.1895 7.07856 0.2505 7.11556 0.3215C7.15556 0.3965 7.20456 0.4665 7.24656 0.5395C7.31856 0.667 7.40756 0.787 7.46506 0.9205C7.54906 1.1145 7.65606 1.2995 7.70656 1.5085C7.74956 1.6935 7.81056 1.8745 7.83256 2.0655C7.84056 2.1375 7.82756 2.207 7.83606 2.2765C7.85256 2.416 7.83206 2.548 7.77456 2.6755C7.75956 2.7105 7.76406 2.7435 7.78056 2.7795C7.90656 3.046 8.01056 3.321 8.11556 3.597C8.12906 3.633 8.12306 3.647 8.08556 3.6585C7.84456 3.7285 7.60306 3.8025 7.36206 3.8755C7.32706 3.8865 7.31606 3.877 7.30556 3.8455C7.24406 3.6825 7.18556 3.5225 7.12906 3.362C7.11706 3.328 7.10256 3.31 7.06506 3.3185C7.02106 3.3295 6.99706 3.31 6.97756 3.2705C6.94656 3.207 6.92106 3.1305 6.86956 3.0905C6.81806 3.0505 6.73656 3.0495 6.66806 3.033C6.61656 3.0195 6.56456 3.004 6.51206 2.9955C6.40068 2.97492 6.29579 2.92813 6.20606 2.859C6.05456 2.747 5.89856 2.644 5.73906 2.5455C5.68706 2.542 5.63806 2.5275 5.58756 2.5155C5.44856 2.487 5.31056 2.457 5.17106 2.4305C5.13756 2.4245 5.13106 2.399 5.12906 2.3765C5.12556 2.3485 5.13256 2.3215 5.16156 2.3045C5.20606 2.278 5.25656 2.273 5.30656 2.2645C5.52894 2.22721 5.75366 2.20549 5.97906 2.1995C6.03406 2.1985 6.08356 2.2195 6.13506 2.2325C6.14907 2.23697 6.16396 2.23794 6.17843 2.23532C6.1929 2.23271 6.20651 2.22659 6.21806 2.2175C6.32606 2.146 6.43506 2.0775 6.54306 2.0065C6.56006 1.996 6.59106 1.9885 6.57806 1.96C6.57617 1.95595 6.57364 1.95224 6.57056 1.949C6.56456 1.944 6.55756 1.943 6.54906 1.943L6.52406 1.944H6.52056C6.40161 1.94226 6.28499 1.97717 6.18656 2.044C6.14656 2.069 6.05656 2.0535 6.03156 2.016C5.86156 1.758 5.62006 1.572 5.39056 1.371C5.28856 1.283 5.18906 1.1905 5.08056 1.1085C5.05356 1.0885 5.04056 1.0365 5.05956 1.0105C5.08356 0.9745 5.11456 0.99 5.14356 1.003C5.23606 1.044 5.32456 1.0905 5.40756 1.1495C5.68956 1.351 5.99256 1.5215 6.29356 1.692C6.30164 1.69696 6.30999 1.70147 6.31856 1.7055C6.36456 1.7205 6.38856 1.7005 6.38106 1.6525C6.37723 1.6277 6.36649 1.60448 6.35006 1.5855C6.10606 1.2985 5.84956 1.0235 5.59706 0.744C5.54456 0.686 5.48206 0.636 5.42306 0.584C5.37708 0.545871 5.3396 0.498518 5.31306 0.445C5.30449 0.430041 5.30097 0.41271 5.30304 0.395591C5.30512 0.378472 5.31266 0.36248 5.32456 0.35C5.34456 0.3275 5.36306 0.3225 5.39306 0.338C5.47806 0.379 5.55906 0.427 5.63456 0.4845C5.76756 0.5855 5.90206 0.686 6.03656 0.787L6.44006 1.0885C6.45006 1.097 6.46156 1.105 6.47106 1.1135C6.49606 1.1365 6.51806 1.1605 6.54206 1.1845L6.55656 1.199C6.56606 1.2085 6.57456 1.2215 6.58656 1.229C6.61406 1.2455 6.64256 1.26 6.67156 1.231C6.68156 1.221 6.68606 1.213 6.68656 1.2035C6.68656 1.2 6.68856 1.1965 6.68656 1.193L6.68606 1.188C6.682 1.1744 6.67461 1.16203 6.66456 1.152L6.57456 1.0585C6.52496 1.00639 6.4729 0.956665 6.41856 0.9095C6.24356 0.7645 6.06556 0.624 5.88556 0.487C5.79406 0.417 5.68706 0.3705 5.58756 0.313C5.55156 0.2925 5.52756 0.2625 5.50106 0.2335C5.49227 0.223359 5.48649 0.210963 5.48437 0.197711C5.48225 0.184459 5.48388 0.170877 5.48906 0.1585C5.50006 0.1315 5.52656 0.133 5.54906 0.1305V0.13ZM2.66606 0.8245C2.67104 0.823685 2.67615 0.824565 2.68056 0.827C2.70456 0.8405 2.69556 0.8655 2.69556 0.8945C2.70206 0.9245 2.68256 0.9495 2.65556 0.9745C2.48256 1.1355 2.30206 1.288 2.11756 1.4355C2.04406 1.4945 1.95406 1.522 1.87256 1.5665C1.85556 1.575 1.84606 1.5665 1.83656 1.5545C1.77656 1.4775 1.71756 1.3995 1.65756 1.323C1.63506 1.2955 1.66606 1.2965 1.68056 1.2905C1.80756 1.245 1.93256 1.193 2.05856 1.143C2.24106 1.071 2.40656 0.968 2.57856 0.8765C2.59656 0.8665 2.61356 0.855 2.63106 0.845C2.64306 0.84 2.65306 0.8265 2.66606 0.8245ZM1.35656 1.2395C1.3819 1.2422 1.40554 1.25349 1.42356 1.2715C1.45956 1.305 1.48856 1.3435 1.51356 1.3855C1.60006 1.5255 1.72006 1.6385 1.83656 1.754C1.91806 1.8355 2.00156 1.914 2.08756 1.989C2.11606 2.014 2.12106 2.0525 2.13656 2.085C2.14256 2.097 2.13756 2.1065 2.12656 2.1125C2.12106 2.1165 2.11506 2.119 2.11156 2.1225C2.04056 2.1825 1.97356 2.174 1.89056 2.132C1.72923 2.04971 1.58313 1.94047 1.45856 1.809C1.45356 1.804 1.44856 1.8005 1.44356 1.797C1.38656 1.754 1.38356 1.756 1.35856 1.822C1.33256 1.8895 1.31556 1.959 1.28556 2.024C1.27456 2.0465 1.29156 2.071 1.30856 2.0875C1.32756 2.107 1.34056 2.137 1.37556 2.132C1.39106 2.1295 1.39956 2.121 1.40306 2.1045C1.41156 2.0645 1.42306 2.0245 1.43306 1.976C1.56406 2.086 1.70956 2.171 1.85306 2.2675L1.71406 2.347C1.35756 2.547 1.00006 2.747 0.644564 2.9495C0.615564 2.9645 0.603564 2.9685 0.591564 2.9325C0.455064 2.509 0.311564 2.0875 0.196564 1.6565C0.170564 1.5565 0.159564 1.4525 0.140564 1.3505C0.134564 1.3205 0.154564 1.305 0.174064 1.294C0.200564 1.281 0.201564 1.312 0.211064 1.324C0.399564 1.584 0.528064 1.879 0.681564 2.1585C0.727564 2.2425 0.779064 2.3235 0.828064 2.407C0.838064 2.422 0.845064 2.4355 0.869064 2.427C0.895564 2.417 0.890564 2.401 0.886064 2.382C0.866564 2.295 0.822064 2.217 0.789564 2.1355C0.783628 2.12295 0.780674 2.1092 0.780935 2.09532C0.781195 2.08145 0.784662 2.06782 0.791064 2.0555C0.859564 1.9135 0.956064 1.79 1.03106 1.654C1.10106 1.5305 1.18956 1.42 1.25656 1.2955C1.26583 1.27736 1.28029 1.26239 1.2981 1.25251C1.31591 1.24262 1.33627 1.23777 1.35656 1.2395ZM2.24356 1.4855C2.25056 1.487 2.25556 1.4935 2.26156 1.5065C2.32156 1.6415 2.36206 1.784 2.41256 1.9215C2.41756 1.935 2.41856 1.946 2.40406 1.9545L2.27606 2.0335C2.27206 2.036 2.26756 2.037 2.25306 2.0435C2.24956 2.037 2.24456 2.0265 2.23756 2.018L1.96756 1.708C1.95556 1.694 1.94356 1.6805 1.96756 1.6675C2.05606 1.617 2.12356 1.5355 2.21706 1.4925C2.22906 1.487 2.23706 1.484 2.24356 1.4855ZM3.20806 1.7285C3.23345 1.72718 3.25841 1.73538 3.27806 1.7515C3.29471 1.76372 3.30739 1.78058 3.3145 1.79997C3.32162 1.81936 3.32285 1.84041 3.31806 1.8605C3.30661 1.9159 3.27853 1.96648 3.23756 2.0055C3.06793 2.16818 2.91973 2.35182 2.79656 2.552C2.68256 2.732 2.57006 2.911 2.48456 3.107C2.46608 3.14513 2.44141 3.17993 2.41156 3.21C2.29156 3.3465 2.14856 3.4525 1.98406 3.529C1.96809 3.53526 1.95439 3.5462 1.94475 3.56039C1.93511 3.57457 1.92999 3.59135 1.93006 3.6085C1.92756 3.6385 1.91806 3.6675 1.91556 3.6975C1.91537 3.73434 1.9067 3.77063 1.89023 3.80358C1.87376 3.83653 1.84992 3.86524 1.82056 3.8875C1.80056 3.9035 1.79806 3.929 1.79056 3.9505L1.65406 4.408C1.65406 4.4115 1.65406 4.415 1.65306 4.4175C1.65306 4.4245 1.65406 4.4325 1.64456 4.4365C1.62456 4.4415 1.60606 4.4355 1.58806 4.426C1.36549 4.37401 1.14379 4.31833 0.923064 4.259C0.895564 4.253 0.869064 4.244 0.840064 4.241C0.796064 4.235 0.792064 4.2145 0.812564 4.181C0.841564 4.0405 0.875064 3.901 0.961564 3.7825C0.980564 3.756 0.979564 3.7345 0.962564 3.7055C0.867564 3.547 0.795564 3.3765 0.716564 3.2105C0.703564 3.1835 0.708064 3.1705 0.733564 3.1555C1.16477 2.88914 1.59527 2.62164 2.02506 2.353C2.04756 2.338 2.06956 2.347 2.09106 2.342C2.16656 2.325 2.24006 2.302 2.30606 2.2605C2.31106 2.257 2.31906 2.2545 2.32106 2.2495C2.36956 2.143 2.47606 2.1065 2.56606 2.0645C2.77156 1.971 2.97906 1.8845 3.16056 1.748C3.17411 1.73685 3.19062 1.73039 3.20806 1.7285ZM8.92956 3.6145V3.617L8.93056 3.6165C8.92006 3.7445 8.90906 3.8655 8.89956 3.9865L8.87806 4.254C8.87556 4.2865 8.86606 4.307 8.83106 4.319C8.26878 4.51221 7.70711 4.70722 7.14606 4.904L7.12606 4.9085C7.10856 4.911 7.09906 4.9025 7.08606 4.881C6.97756 4.684 6.86706 4.4885 6.75556 4.2925C6.74056 4.2675 6.73656 4.254 6.77256 4.2445L8.89956 3.6215C8.90656 3.619 8.91456 3.618 8.92956 3.6145ZM8.72456 3.8075C8.64756 3.809 8.57806 3.881 8.58156 3.954C8.58506 4.0225 8.64356 4.0825 8.70856 4.08C8.77706 4.079 8.84356 4.0035 8.84206 3.929C8.83956 3.846 8.80156 3.8065 8.72456 3.8075ZM0.309564 4.2425C0.314564 4.2425 0.321564 4.2435 0.329564 4.246L1.29606 4.5L2.26456 4.755C2.29556 4.7635 2.30556 4.773 2.29456 4.805L2.15556 5.2615C2.15056 5.2795 2.14706 5.2985 2.12656 5.2985C2.1232 5.29873 2.11982 5.29839 2.11656 5.2975L1.59856 5.2265C1.48556 5.2115 1.37356 5.1955 1.26106 5.18C0.918759 5.13094 0.576257 5.08327 0.233564 5.037C0.212064 5.031 0.204564 5.018 0.208564 4.988C0.234564 4.75 0.260064 4.5125 0.285064 4.273C0.286564 4.2675 0.286064 4.263 0.287564 4.258C0.288958 4.25572 0.289814 4.25316 0.290064 4.2505C0.293564 4.2435 0.300564 4.2405 0.309064 4.2405L0.309564 4.2425ZM4.37756 4.294L4.43406 4.295C4.53256 4.3 4.62856 4.338 4.71856 4.378C4.75856 4.396 4.79806 4.413 4.83756 4.432L4.86606 4.4465C4.89506 4.4605 4.92506 4.475 4.95256 4.4915L5.00906 4.524C5.02706 4.5365 5.04656 4.547 5.06306 4.5605C5.09906 4.5855 5.13406 4.613 5.16656 4.643C5.27556 4.744 5.35256 4.863 5.39806 5.003C5.43056 5.104 5.45456 5.2075 5.46306 5.3115C5.47106 5.4125 5.44106 5.511 5.41506 5.608C5.41106 5.623 5.40506 5.626 5.40006 5.625C5.39306 5.6225 5.38956 5.614 5.38356 5.607L5.27556 5.482C5.1404 5.31802 4.95877 5.19879 4.75456 5.14C4.59262 5.09432 4.42574 5.06847 4.25756 5.063C4.12231 5.06398 3.98754 5.0794 3.85556 5.109C3.75006 5.129 3.64406 5.146 3.54006 5.1655C3.47156 5.1775 3.40906 5.2085 3.34656 5.2355C3.31656 5.2495 3.28656 5.2625 3.25656 5.274L3.24656 5.276C3.05856 5.342 2.89906 5.456 2.73456 5.561C2.68956 5.591 2.65206 5.631 2.61306 5.67L2.60806 5.674L2.57606 5.7065C2.50006 5.78 2.42606 5.8545 2.34406 5.9215C2.30706 5.973 2.25656 6.009 2.21006 6.0545C2.22206 5.9695 2.24506 5.8905 2.28306 5.8185C2.32269 5.74364 2.36643 5.67103 2.41406 5.601C2.43806 5.566 2.46206 5.531 2.48706 5.498C2.53722 5.43017 2.58975 5.36413 2.64456 5.3C2.68506 5.2515 2.72606 5.2035 2.76806 5.155L2.89306 5.013C2.91081 4.99477 2.93004 4.97804 2.95056 4.963L2.96356 4.948C3.00256 4.915 3.03706 4.88 3.08256 4.843L3.08856 4.838L3.12206 4.8075C3.24206 4.6935 3.38156 4.6045 3.52056 4.516C3.53456 4.506 3.54906 4.4985 3.56356 4.4905L3.61906 4.4665C3.62406 4.4645 3.62906 4.4615 3.63356 4.4605C3.66203 4.44871 3.69088 4.43787 3.72006 4.428L3.77856 4.41C3.84856 4.39 3.91806 4.373 3.98656 4.3515C4.11293 4.3113 4.24498 4.29188 4.37756 4.294ZM0.592564 4.5185C0.557564 4.5205 0.516064 4.517 0.485064 4.547C0.463113 4.56895 0.44581 4.59509 0.434189 4.62388C0.422569 4.65266 0.416868 4.68349 0.417428 4.71452C0.417988 4.74556 0.424797 4.77616 0.437449 4.80451C0.450101 4.83285 0.468335 4.85836 0.491064 4.8795C0.51724 4.90277 0.551043 4.91562 0.586064 4.91562C0.621085 4.91562 0.654888 4.90277 0.681064 4.8795C0.753564 4.816 0.772064 4.7225 0.728564 4.612C0.702064 4.5435 0.666064 4.5185 0.593564 4.5185H0.592564ZM8.51556 4.5495C8.55906 4.549 8.59706 4.576 8.63056 4.6225C8.63756 4.6275 8.64506 4.6325 8.65206 4.6385C8.66306 4.648 8.66706 4.6585 8.67856 4.6705C8.72806 4.727 8.78206 4.7825 8.83356 4.8375C8.83675 4.84094 8.83914 4.84504 8.84056 4.8495C8.84133 4.85127 8.84165 4.85321 8.84147 4.85513C8.8413 4.85705 8.84064 4.8589 8.83956 4.8605C8.83772 4.86345 8.83513 4.86586 8.83206 4.8675L8.82706 4.875L8.82606 4.876C8.82506 4.877 8.82506 4.8785 8.82406 4.881C8.82406 4.882 8.82256 4.883 8.82256 4.883H8.82406V4.887C8.75156 4.96 8.77106 5.0285 8.82906 5.0945C8.83206 5.1005 8.83606 5.1065 8.83606 5.1125C8.88406 5.176 8.84406 5.2395 8.83606 5.3035C8.83456 5.3095 8.83356 5.3115 8.82856 5.3135L8.82506 5.3155C8.81998 5.31533 8.81493 5.31449 8.81006 5.313L8.80506 5.3115C8.76306 5.29923 8.72122 5.28639 8.67956 5.273C8.67606 5.273 8.67356 5.271 8.66956 5.2695C8.66656 5.2695 8.66406 5.266 8.66056 5.266C8.64041 5.2669 8.6203 5.26349 8.60156 5.256C8.57771 5.24422 8.55073 5.24029 8.5245 5.24478C8.49827 5.24927 8.47414 5.26195 8.45556 5.281C8.45538 5.28446 8.45453 5.28786 8.45306 5.291C8.47306 5.321 8.50706 5.3285 8.53706 5.338C8.65956 5.378 8.76356 5.453 8.87706 5.512C8.90306 5.527 8.90806 5.558 8.90556 5.588C8.90406 5.6045 8.89956 5.6215 8.89556 5.6395L8.85956 5.7945C8.86033 5.80791 8.85683 5.82121 8.84956 5.8325C8.85156 5.9165 8.79256 5.979 8.76456 6.051C8.76156 6.057 8.75906 6.0595 8.75456 6.071C8.73576 6.12188 8.7144 6.17178 8.69056 6.2205C8.69056 6.224 8.68556 6.229 8.68456 6.2325V6.23C8.68456 6.231 8.68356 6.231 8.68356 6.2325L8.68106 6.2375C8.67956 6.2385 8.67956 6.2395 8.67856 6.241C8.67256 6.2635 8.66856 6.2875 8.64956 6.307C8.62741 6.38257 8.596 6.45512 8.55606 6.523C8.55256 6.529 8.55006 6.529 8.54756 6.541C8.51656 6.613 8.48406 6.6995 8.45256 6.7785C8.44556 6.8075 8.43956 6.836 8.43256 6.8635L8.42856 6.871C8.42856 6.872 8.42756 6.872 8.42756 6.8735C8.42756 6.876 8.42506 6.8785 8.42406 6.8805C8.42517 6.91343 8.41902 6.9462 8.40606 6.9765C8.40006 6.996 8.39506 7.0175 8.38906 7.0365C8.3887 7.03993 8.38786 7.0433 8.38656 7.0465L8.28606 7.5025C8.25856 7.6275 8.24756 7.7545 8.22706 7.8795C8.20806 7.997 8.20306 8.118 8.17406 8.2335C8.15406 8.3175 8.10606 8.3955 8.06756 8.4735C8.03156 8.5465 8.00856 8.6245 7.96406 8.6955L7.96056 8.703C7.95809 8.7078 7.95608 8.71282 7.95456 8.718C7.95356 8.721 7.95356 8.7245 7.95206 8.727L7.94856 8.7435C7.94764 8.74945 7.9473 8.75548 7.94756 8.7615C7.94756 8.7675 7.94756 8.7735 7.94606 8.7795V8.7975C7.94634 8.80951 7.94601 8.82152 7.94506 8.8335C7.93506 8.962 7.91856 9.0905 7.92456 9.22C7.92556 9.244 7.91856 9.2575 7.89556 9.265L7.86706 9.2765C7.84793 9.28377 7.82908 9.29178 7.81056 9.3005L7.78056 9.3125C7.76506 9.3185 7.75556 9.3235 7.73056 9.3295V9.327C7.73056 9.327 7.72756 9.3295 7.72556 9.3295L7.65906 9.357L7.61256 9.376C7.58049 9.39763 7.54474 9.41322 7.50706 9.422L7.48906 9.432C7.4097 9.46652 7.3307 9.50185 7.25206 9.538C7.21156 9.55 7.16956 9.574 7.12856 9.593C7.08356 9.613 7.04106 9.6305 6.99656 9.65C6.92656 9.681 6.85756 9.71 6.78756 9.7405C6.78556 9.7415 6.78156 9.7405 6.77956 9.7405C6.71556 9.7645 6.64956 9.7995 6.58956 9.827C6.56556 9.84 6.53106 9.8535 6.50106 9.8655C6.44606 9.887 6.43356 9.8845 6.42106 9.828C6.38556 9.802 6.38206 9.758 6.36906 9.72C6.35556 9.684 6.34506 9.645 6.33306 9.609C6.33056 9.597 6.32456 9.599 6.32456 9.592C6.31256 9.5755 6.31256 9.56 6.30656 9.543L6.30506 9.5345C6.30156 9.532 6.30156 9.5285 6.30006 9.5245L6.29706 9.5165H6.29906C6.28256 9.4665 6.26406 9.4165 6.25256 9.3665C6.24056 9.333 6.21906 9.3005 6.21256 9.2655C6.21014 9.25396 6.21014 9.24204 6.21256 9.2305L6.21656 9.214L6.21856 9.2055C6.22856 9.182 6.24356 9.159 6.25606 9.1355C6.26456 9.117 6.27106 9.0975 6.28006 9.0785C6.28856 9.0595 6.29506 9.045 6.30406 9.021C6.32306 8.985 6.33506 8.943 6.35906 8.901C6.35906 8.891 6.36656 8.881 6.36906 8.872C6.39056 8.799 6.41406 8.7245 6.44356 8.6535C6.44356 8.651 6.44106 8.6475 6.44206 8.645C6.45056 8.602 6.49106 8.5865 6.51506 8.561V8.5625C6.52706 8.5585 6.53356 8.5515 6.53956 8.5515C6.54656 8.5395 6.55356 8.5345 6.56106 8.5275C6.58057 8.50362 6.5986 8.47857 6.61506 8.4525C6.63756 8.4195 6.65806 8.3845 6.68356 8.351C6.69156 8.3405 6.69856 8.3235 6.71206 8.3235C6.71456 8.3235 6.71556 8.3235 6.71806 8.3245C6.73756 8.3295 6.73156 8.352 6.72906 8.3665C6.71885 8.42052 6.71885 8.47598 6.72906 8.53C6.73506 8.572 6.74206 8.614 6.74556 8.656L6.74456 8.675C6.75586 8.70543 6.76194 8.73755 6.76256 8.77C6.77256 8.811 6.78056 8.85 6.79256 8.891C6.82856 8.966 6.85506 9.041 6.87906 9.118L6.88156 9.117C6.92156 9.177 6.96306 9.247 7.00406 9.312C7.01606 9.328 7.02906 9.345 7.04106 9.357H7.04356V9.367C7.05556 9.367 7.06156 9.393 7.07956 9.369C7.07606 9.357 7.07356 9.357 7.06956 9.357C7.0633 9.34418 7.05828 9.33078 7.05456 9.317C7.05206 9.309 7.04806 9.2995 7.04706 9.292C7.04451 9.28381 7.04251 9.27546 7.04106 9.267C7.04006 9.2635 7.04006 9.2585 7.03856 9.255C7.0376 9.24687 7.03592 9.23884 7.03356 9.231L7.02806 9.1935L7.02156 9.1565C7.01806 9.153 7.01806 9.148 7.01806 9.1435C7.01706 9.1385 7.01606 9.1335 7.01306 9.1285C7.01206 9.1145 7.00956 9.1 7.00756 9.0855L6.99656 8.9995C6.99556 8.9845 6.99056 8.9705 6.98956 8.956C6.97513 8.79905 6.98118 8.64089 7.00756 8.4855H7.01456C7.02906 8.4135 7.04356 8.3305 7.05756 8.2525C7.06156 8.2525 7.06506 8.254 7.06956 8.254C7.06456 8.384 7.07806 8.514 7.10706 8.6415C7.10806 8.644 7.10806 8.6475 7.10806 8.65C7.12606 8.699 7.14556 8.7485 7.16106 8.799C7.16456 8.809 7.16806 8.8205 7.17206 8.83C7.17863 8.84705 7.18792 8.86292 7.19956 8.877C7.20306 8.883 7.20956 8.889 7.20956 8.895C7.22206 8.9045 7.22806 8.915 7.23806 8.925C7.24506 8.933 7.25106 8.943 7.25806 8.9515C7.28306 8.9755 7.31006 8.998 7.34106 9.0295C7.33778 9.00622 7.33495 8.98289 7.33256 8.9595C7.33056 8.938 7.32656 8.9165 7.32456 8.8925C7.32456 8.8925 7.31806 8.889 7.31806 8.8865C7.31759 8.86841 7.31592 8.85037 7.31306 8.8325L7.29306 8.6675C7.29306 8.6625 7.29306 8.6595 7.29406 8.655C7.29406 8.65 7.29556 8.6415 7.29556 8.6415C7.28692 8.57269 7.28357 8.50332 7.28556 8.434L7.28456 8.4255C7.27399 8.36431 7.27366 8.3018 7.28356 8.2405C7.28606 8.224 7.28456 8.2055 7.28606 8.189C7.28606 8.1855 7.28456 8.183 7.28456 8.179C7.28456 8.1 7.28806 8.019 7.31206 7.943L7.31356 7.9345C7.31956 7.8985 7.32556 7.8555 7.33156 7.8155C7.33756 7.7755 7.34356 7.7355 7.34806 7.6955C7.35056 7.679 7.35556 7.6705 7.36506 7.6705C7.37006 7.6705 7.37706 7.673 7.38506 7.679L7.41006 7.694L7.44806 7.7185C7.46006 7.727 7.47206 7.735 7.48306 7.746C7.48406 7.747 7.48506 7.7485 7.48756 7.7495C7.49021 7.75175 7.49306 7.75376 7.49606 7.7555H7.49856V7.7545C7.58256 7.7965 7.62856 7.8675 7.68556 7.9335C7.71114 7.95228 7.73034 7.97846 7.74056 8.0085C7.77806 8.058 7.80556 8.111 7.82506 8.17C7.82606 8.175 7.82856 8.18 7.83006 8.185C7.83106 8.19 7.83356 8.188 7.83456 8.2C7.84456 8.212 7.84956 8.2275 7.85606 8.242L7.87306 8.284L7.88256 8.304C7.88506 8.309 7.88756 8.3125 7.89106 8.316C7.89616 8.32217 7.90322 8.3264 7.91106 8.328C7.92456 8.284 7.89356 8.242 7.90556 8.2H7.90906C7.90906 8.188 7.90556 8.1875 7.90556 8.1815C7.89356 8.1035 7.88356 8.0265 7.85056 7.955L7.85006 7.935C7.82106 7.8635 7.80706 7.79 7.76506 7.727C7.75526 7.71911 7.74867 7.70791 7.74656 7.6955C7.73356 7.6835 7.72656 7.669 7.71906 7.655C7.71264 7.64456 7.7063 7.63406 7.70006 7.6235V7.632C7.70006 7.631 7.69756 7.6295 7.69756 7.6285V7.627C7.66384 7.57841 7.6271 7.53199 7.58756 7.488L7.58256 7.483C7.57756 7.478 7.57256 7.478 7.56756 7.4665C7.53906 7.4545 7.51156 7.4185 7.48256 7.393C7.47906 7.3895 7.47556 7.388 7.47256 7.3845C7.47056 7.3825 7.47256 7.3795 7.46106 7.3765C7.40106 7.3355 7.35606 7.285 7.30406 7.249C7.29406 7.237 7.28206 7.244 7.27756 7.225C7.43256 7.215 7.58256 7.2335 7.73856 7.243V7.237H7.73956C7.81656 7.249 7.88856 7.2635 7.95806 7.2935C7.96056 7.2935 7.96306 7.297 7.96656 7.297V7.2995C8.01456 7.3105 8.06006 7.332 8.10556 7.3535C8.11556 7.3585 8.12756 7.3735 8.13806 7.3595C8.14656 7.3475 8.13306 7.3365 8.12606 7.327C8.10806 7.302 8.09106 7.277 8.07206 7.2515C8.06856 7.2455 8.06206 7.2395 8.06206 7.2335C8.02656 7.1985 7.99906 7.1585 7.96706 7.1235C7.95659 7.11346 7.94658 7.10295 7.93706 7.092C7.89923 7.06778 7.86433 7.03926 7.83306 7.007C7.82706 7.003 7.82106 6.996 7.81506 6.996C7.80006 6.996 7.78306 6.979 7.76706 6.968C7.75206 6.9575 7.73506 6.948 7.71906 6.937C7.71306 6.9335 7.70706 6.931 7.70106 6.927C7.62806 6.8995 7.55456 6.8745 7.48106 6.847C7.47906 6.847 7.47456 6.8455 7.47456 6.8445C7.47456 6.8445 7.46806 6.8445 7.46606 6.8435C7.45263 6.84307 7.43983 6.83773 7.43006 6.8285C7.42399 6.82407 7.41931 6.818 7.41656 6.811L7.41406 6.805C7.41056 6.795 7.40906 6.7845 7.41056 6.7735C7.41276 6.73672 7.41074 6.69982 7.40456 6.6635C7.40356 6.6525 7.40106 6.643 7.39856 6.632C7.39637 6.62197 7.39404 6.61197 7.39156 6.602L7.38406 6.571C7.38037 6.55592 7.37637 6.54092 7.37206 6.526C7.37206 6.526 7.36706 6.525 7.36706 6.521C7.35556 6.4485 7.32706 6.375 7.30506 6.303L7.29656 6.2745C7.28037 6.24923 7.27059 6.2204 7.26806 6.1905C7.26806 6.1805 7.26806 6.1725 7.26906 6.1625L7.27006 6.1495C7.27256 6.136 7.27506 6.122 7.28006 6.1085L7.29656 6.0545C7.29656 6.052 7.29656 6.046 7.29806 6.046H7.29656C7.31156 5.961 7.34606 5.889 7.37006 5.812C7.37006 5.811 7.37256 5.811 7.37256 5.8095L7.37756 5.8045C7.37856 5.8035 7.37956 5.8035 7.37956 5.8025C7.39968 5.77608 7.40913 5.74306 7.40606 5.71C7.40442 5.69221 7.39986 5.67481 7.39256 5.6585C7.38456 5.637 7.37356 5.6165 7.36256 5.595C7.36156 5.5925 7.35756 5.59 7.35556 5.589C7.35456 5.5875 7.35306 5.5865 7.35306 5.585C7.30805 5.53236 7.27252 5.4723 7.24806 5.4075L7.24056 5.3885C7.23806 5.386 7.23806 5.3835 7.23656 5.38L7.23556 5.3765C7.23418 5.37376 7.23301 5.37092 7.23206 5.368L7.23306 5.369L7.23206 5.3665C7.23348 5.35918 7.23549 5.35199 7.23806 5.345C7.24006 5.34 7.24306 5.3365 7.24506 5.332C7.24756 5.3285 7.25106 5.325 7.25506 5.321L7.25956 5.3175C7.29206 5.2705 7.32206 5.2215 7.35806 5.176C7.37279 5.15896 7.38283 5.13839 7.38721 5.1163C7.3916 5.09422 7.39017 5.07137 7.38306 5.05C7.36306 4.9815 7.36506 4.98 7.43306 4.955C7.44556 4.95 7.59106 4.895 7.64956 4.877L7.68706 4.862L7.69656 4.859C7.78119 4.82678 7.86603 4.79511 7.95106 4.764C7.95356 4.763 7.95706 4.763 7.95956 4.763C8.02956 4.727 8.10606 4.704 8.17956 4.679C8.18956 4.6755 8.19806 4.6715 8.20956 4.669C8.22206 4.659 8.25806 4.6515 8.26956 4.6415C8.32956 4.6225 8.37806 4.595 8.43206 4.583C8.45559 4.56317 8.48486 4.55143 8.51556 4.5495ZM5.79956 4.851C5.83856 4.8515 5.87728 4.85756 5.91456 4.869L5.92156 4.871C6.05106 4.911 6.18306 4.942 6.30656 5.001C6.32656 5.0105 6.34856 5.02 6.36306 5.0395C6.44306 5.097 6.51656 5.163 6.57806 5.242C6.67306 5.3645 6.76806 5.488 6.85656 5.6285C6.85106 5.627 6.84556 5.6245 6.83956 5.622V5.6215C6.80702 5.6076 6.77602 5.59034 6.74706 5.57C6.63834 5.50408 6.52581 5.44464 6.41006 5.392C6.35706 5.36887 6.30151 5.35208 6.24456 5.342C6.09457 5.31421 5.94145 5.30731 5.78956 5.3215C5.74756 5.325 5.70456 5.3215 5.66206 5.3215C5.63106 5.3215 5.61656 5.3065 5.61656 5.2755C5.61656 5.158 5.62256 5.0395 5.58656 4.9255C5.57906 4.9015 5.59356 4.8915 5.61406 4.8845C5.67372 4.86288 5.73661 4.85155 5.80006 4.851H5.79956ZM4.42456 5.2375C4.63606 5.23 4.83056 5.29 5.00806 5.3995C5.07406 5.4395 5.13456 5.4875 5.18956 5.5415L5.19656 5.548C5.25756 5.6095 5.31156 5.678 5.35656 5.753C5.39656 5.818 5.38606 5.889 5.37256 5.96C5.33656 6.163 5.21456 6.313 5.07656 6.4535C4.94406 6.588 4.77856 6.6755 4.62506 6.7775C4.40756 6.9225 4.15906 6.979 3.90606 7.0165C3.59006 7.063 3.26956 7.068 2.95306 7.11C2.83806 7.1245 2.72106 7.134 2.60606 7.1545C2.47063 7.1767 2.34891 7.25009 2.26606 7.3595C2.23506 7.4015 2.21606 7.453 2.18606 7.511C2.1647 7.44613 2.16936 7.3755 2.19906 7.314C2.25378 7.19573 2.34802 7.10025 2.46556 7.044C2.67306 6.934 2.90506 6.913 3.12706 6.8565C3.30706 6.811 3.49206 6.7845 3.67056 6.7355C3.91727 6.66927 4.15627 6.57709 4.38356 6.4605C4.50356 6.398 4.62856 6.3345 4.71156 6.218C4.73973 6.17797 4.75955 6.13269 4.76986 6.08485C4.78016 6.037 4.78075 5.98757 4.77156 5.9395C4.76906 5.9225 4.76406 5.9145 4.75806 5.913C4.75206 5.912 4.74306 5.9165 4.73306 5.9265C4.64306 6.0065 4.54956 6.0835 4.44756 6.151C4.28756 6.254 4.11106 6.316 3.92856 6.361C3.63856 6.433 3.34556 6.494 3.04656 6.516C2.83567 6.52911 2.6274 6.56979 2.42706 6.637C2.25706 6.696 2.08356 6.7545 1.94706 6.882C1.93006 6.897 1.90956 6.9105 1.88206 6.931L1.88556 6.912L1.87256 6.9215V6.919C1.87756 6.916 1.88056 6.9125 1.88456 6.9105C1.89236 6.87489 1.90659 6.841 1.92656 6.8105L2.24956 6.2995C2.25533 6.28989 2.26221 6.281 2.27006 6.273C2.43706 6.108 2.59656 5.9345 2.78156 5.7905C3.08856 5.5505 3.42356 5.363 3.80906 5.2805C3.90256 5.26 3.99756 5.2455 4.09406 5.2455C4.20406 5.2445 4.31556 5.2405 4.42406 5.237L4.42456 5.2375ZM0.608564 5.2485C0.615064 5.2485 0.623564 5.2495 0.632564 5.253C0.647564 5.258 0.663564 5.2565 0.679564 5.258C0.743064 5.272 0.809564 5.273 0.872564 5.289C0.878564 5.289 0.881064 5.29 0.889564 5.294C0.956971 5.29727 1.02393 5.30681 1.08956 5.3225C1.16206 5.3325 1.23456 5.3405 1.30606 5.3525C1.32256 5.3525 1.33706 5.3515 1.35256 5.361C1.35506 5.361 1.35856 5.36 1.35856 5.361C1.44256 5.371 1.50856 5.376 1.58106 5.3885H1.57356V5.391C1.62156 5.397 1.65356 5.403 1.69006 5.409C1.72856 5.415 1.76806 5.424 1.80506 5.424H1.80656C1.81006 5.424 1.81256 5.426 1.81506 5.426L1.82556 5.4285C1.84956 5.4295 1.85906 5.4425 1.86306 5.4635C1.88206 5.577 1.89806 5.691 1.92156 5.805C1.92156 5.8135 1.92656 5.821 1.92556 5.828L1.93556 5.883L1.96606 6.049C1.96606 6.054 1.96606 6.064 1.96756 6.067V6.072C1.97956 6.1435 1.99256 6.2085 2.00456 6.277V6.3C1.94255 6.36812 1.8919 6.44578 1.85456 6.53C1.83956 6.5675 1.81956 6.606 1.80456 6.643L1.80156 6.6445C1.78956 6.6825 1.77056 6.7195 1.75256 6.756C1.75106 6.756 1.75006 6.7585 1.74906 6.761C1.74656 6.7655 1.74506 6.773 1.74306 6.776V6.7775C1.71753 6.84948 1.68539 6.91894 1.64706 6.985C1.64306 6.995 1.63506 7.0045 1.63506 7.013C1.62306 7.058 1.61206 7.104 1.58906 7.146C1.58276 7.18538 1.57027 7.22352 1.55206 7.259C1.53695 7.32665 1.51517 7.39264 1.48706 7.456C1.48356 7.4655 1.47756 7.474 1.47756 7.4835L1.47656 7.487C1.47506 7.4905 1.47406 7.497 1.47156 7.5015C1.47066 7.50672 1.46897 7.51178 1.46656 7.5165L1.46556 7.5215L1.44656 7.8925L1.45706 7.8965L1.50406 7.804C1.51956 7.774 1.53156 7.7425 1.54906 7.7115C1.55806 7.69 1.57406 7.6685 1.57406 7.6465C1.60956 7.5865 1.64206 7.5265 1.67906 7.4715C1.68306 7.4655 1.69006 7.4615 1.69406 7.45C1.72506 7.4015 1.76106 7.338 1.79806 7.283C1.81106 7.2615 1.82506 7.243 1.83706 7.2215C1.84506 7.1975 1.85806 7.194 1.86906 7.1835C1.87956 7.1725 1.88556 7.1615 1.90956 7.151C1.90956 7.1605 1.91206 7.169 1.91106 7.1775L1.90956 7.1825C1.90956 7.187 1.90756 7.1915 1.90606 7.1965L1.90506 7.2015C1.90356 7.205 1.90356 7.2075 1.90256 7.211C1.90161 7.21424 1.90127 7.21763 1.90156 7.221C1.90156 7.224 1.89906 7.226 1.90006 7.23L1.89856 7.2375H1.90006C1.88906 7.3095 1.89006 7.391 1.88806 7.4665C1.88806 7.47 1.88556 7.4765 1.88556 7.4785L1.88806 7.4775C1.89806 7.5495 1.90956 7.6215 1.91906 7.6935H1.91806C1.91956 7.6935 1.92056 7.7085 1.92056 7.715C1.93256 7.787 1.94806 7.86 1.95656 7.9335L1.95756 7.942C1.95906 7.947 1.96006 7.9505 1.96006 7.955C1.97206 8.013 2.01506 8.0525 2.04156 8.103C2.06106 8.1305 2.08156 8.163 2.09956 8.187H2.10056V8.188C2.16056 8.241 2.21056 8.295 2.27806 8.343C2.28806 8.343 2.29756 8.355 2.30706 8.355H2.30606V8.361C2.33006 8.3635 2.35006 8.3825 2.37556 8.3755C2.3802 8.37423 2.38459 8.3722 2.38856 8.3695C2.39206 8.367 2.39706 8.3645 2.39856 8.361C2.40406 8.35 2.39356 8.344 2.38506 8.3405C2.28656 8.278 2.30206 8.1755 2.29006 8.08H2.29406V8.0785C2.31806 8.1015 2.33456 8.1235 2.35506 8.1485C2.35826 8.15351 2.36232 8.15791 2.36706 8.1615L2.39206 8.189C2.40906 8.207 2.42706 8.224 2.44606 8.239C2.46556 8.255 2.48606 8.272 2.50856 8.284C2.51856 8.2875 2.52806 8.296 2.53656 8.296H2.53406C2.60606 8.331 2.66856 8.3645 2.73406 8.399C2.74889 8.40088 2.76282 8.40715 2.77406 8.417C2.79806 8.489 2.82656 8.561 2.81956 8.645C2.82206 8.645 2.82456 8.6535 2.82556 8.66C2.82639 8.66501 2.82605 8.67014 2.82456 8.675C2.83306 8.745 2.83306 8.815 2.82306 8.885C2.82441 8.88811 2.82502 8.89148 2.82485 8.89487C2.82467 8.89825 2.82372 8.90155 2.82206 8.9045C2.82056 8.907 2.82206 8.908 2.82106 8.9105H2.82206C2.82206 8.9805 2.82106 9.0495 2.80306 9.118C2.80156 9.1865 2.78006 9.253 2.77306 9.321C2.77306 9.3235 2.77156 9.326 2.77056 9.3295C2.76656 9.3425 2.76056 9.358 2.78956 9.3545V9.3535C2.85456 9.2855 2.91956 9.22 2.97956 9.1445V9.1495C2.98056 9.1255 2.99456 9.113 3.00806 9.1015C3.03306 9.0765 3.05806 9.0365 3.08356 9.0015C3.10856 8.9665 3.13406 8.933 3.15956 8.8985L3.16056 8.8925C3.16406 8.8805 3.16906 8.8725 3.17506 8.8695C3.17756 8.8685 3.18006 8.867 3.18206 8.867H3.19006C3.19899 8.86859 3.2075 8.872 3.21506 8.877C3.22832 8.8843 3.24118 8.89231 3.25356 8.901C3.32556 8.9405 3.40706 8.967 3.46106 9.0355C3.46706 9.0415 3.47406 9.0425 3.48006 9.0545C3.50506 9.0665 3.52806 9.0945 3.54656 9.1205L3.56556 9.1385C3.56656 9.1395 3.56806 9.1395 3.56906 9.141C3.66406 9.221 3.67106 9.264 3.60256 9.371C3.60056 9.3745 3.59656 9.378 3.59456 9.378C3.59175 9.38764 3.58772 9.39688 3.58256 9.4055C3.57981 9.41181 3.57646 9.41783 3.57256 9.4235L3.56756 9.432C3.55006 9.461 3.53056 9.491 3.52356 9.5245C3.51621 9.55186 3.51417 9.58037 3.51756 9.6085C3.53056 9.6555 3.54256 9.7035 3.55256 9.7515C3.55856 9.78 3.56456 9.809 3.56656 9.839C3.57656 9.91 3.54256 9.953 3.48256 9.983V9.982C3.47056 9.983 3.46956 9.9905 3.46356 9.994C3.46062 9.99684 3.45724 9.99921 3.45356 10.001C3.44751 10.0057 3.44117 10.0101 3.43456 10.014C3.41755 10.0242 3.4041 10.0394 3.39606 10.0575C3.39606 10.061 3.39606 10.06 3.39506 10.0625C3.39406 10.0645 3.39506 10.0695 3.39406 10.0695H3.39756V10.0765C3.38556 10.1115 3.37956 10.1365 3.37356 10.1545C3.37206 10.1595 3.37006 10.163 3.36856 10.1665C3.36756 10.1705 3.36506 10.1725 3.36356 10.175C3.36256 10.1775 3.36006 10.18 3.35906 10.181C3.35577 10.1842 3.35158 10.1863 3.34706 10.187H3.34356C3.33497 10.1863 3.32653 10.1843 3.31856 10.181C3.30156 10.175 3.27956 10.1665 3.24956 10.157C3.24756 10.156 3.24506 10.156 3.24406 10.1545C3.24227 10.1533 3.2402 10.1526 3.23806 10.1525L3.22456 10.1465H3.21956V10.1415H3.21856C3.18256 10.1295 3.14856 10.1225 3.11656 10.109C3.09756 10.102 3.07656 10.096 3.05656 10.0875C3.03156 10.0815 3.00656 10.0695 2.98106 10.0695C2.91106 10.0455 2.84056 10.0335 2.77306 10.0095C2.76756 10.0095 2.76356 10.0105 2.75156 10.0095V10.0105C2.70356 10.001 2.66506 9.989 2.61956 9.9805C2.57506 9.9735 2.55856 9.9505 2.56306 9.9065C2.56556 9.888 2.56456 9.8665 2.56456 9.8485C2.56456 9.8425 2.56306 9.84 2.56306 9.8285C2.55606 9.816 2.54506 9.802 2.53556 9.786C2.53266 9.782 2.5303 9.77763 2.52856 9.773C2.52256 9.767 2.51056 9.761 2.51056 9.754C2.49856 9.7515 2.50306 9.749 2.49956 9.7465C2.46256 9.7115 2.47306 9.665 2.47806 9.6205L2.47906 9.606L2.48306 9.5785C2.48406 9.5735 2.48406 9.5685 2.48506 9.5655C2.50456 9.4905 2.50906 9.4205 2.42856 9.3755C2.41906 9.3695 2.41356 9.3635 2.40106 9.3555V9.3575C2.36492 9.32819 2.32738 9.30066 2.28856 9.275C2.28256 9.263 2.28106 9.2605 2.26906 9.2555C2.21249 9.22487 2.16034 9.18669 2.11406 9.142L2.07706 9.122H2.08206C2.07456 9.1095 2.06606 9.111 2.06006 9.105C2.05056 9.098 2.04206 9.093 2.03006 9.085C1.97006 9.034 1.88856 8.986 1.82356 8.9275C1.80106 8.92 1.78656 8.9025 1.76856 8.8875V8.8855C1.70506 8.8405 1.64256 8.7975 1.58006 8.7495H1.58156C1.57406 8.7495 1.57406 8.7435 1.56206 8.7375C1.52606 8.7195 1.49006 8.6895 1.45906 8.6655C1.44906 8.6535 1.43956 8.6535 1.43006 8.6535C1.40106 8.6295 1.37606 8.6185 1.35206 8.597C1.34206 8.591 1.33406 8.584 1.32206 8.577C1.25081 8.53628 1.18439 8.48764 1.12406 8.432L1.11806 8.4265L1.10706 8.4145C1.09756 8.40273 1.09105 8.38883 1.08806 8.374V8.3835C1.04456 8.3365 1.01606 8.2825 0.980064 8.2335L0.976564 8.226C0.975092 8.22395 0.974226 8.22152 0.974064 8.219C0.973034 8.21474 0.97253 8.21038 0.972564 8.206C0.974289 8.1963 0.978415 8.18719 0.984564 8.1795C0.984564 8.177 0.986064 8.1735 0.986064 8.1695C0.998064 8.093 1.04006 8.0235 1.07006 7.9515V7.933C1.07006 7.933 1.07006 7.922 1.06856 7.917L1.06656 7.91L1.06406 7.9075C1.06172 7.90511 1.05879 7.90339 1.05556 7.9025H1.05206C1.04161 7.90361 1.03162 7.9074 1.02306 7.9135C1.01312 7.91962 1.0039 7.92683 0.995564 7.935L0.985564 7.9425C0.982947 7.94545 0.980604 7.94863 0.978564 7.952L0.975064 7.957C0.975064 7.958 0.974064 7.957 0.974064 7.957C0.974064 7.958 0.972564 7.957 0.972564 7.957V7.958C0.948564 7.9855 0.912564 8.0095 0.881564 8.035C0.875564 8.041 0.864564 8.048 0.864564 8.054V8.053H0.861064C0.851064 8.065 0.838564 8.065 0.825064 8.059L0.670064 7.9905C0.658064 7.9845 0.652064 7.9715 0.650064 7.9595C0.648593 7.9542 0.64726 7.94887 0.646064 7.9435L0.642564 7.9305V7.933C0.624564 7.849 0.653564 7.7865 0.669064 7.7145C0.670064 7.7085 0.671564 7.7025 0.671564 7.6965C0.683564 7.6265 0.688064 7.5525 0.708564 7.485V7.454C0.698564 7.377 0.697564 7.3015 0.692064 7.224L0.693064 7.185C0.686064 7.042 0.676564 6.8995 0.671564 6.7565C0.660564 6.4575 0.636564 6.16 0.645064 5.8615C0.646515 5.80669 0.63377 5.75243 0.608064 5.704C0.592905 5.67588 0.576385 5.64851 0.558564 5.622C0.545413 5.60559 0.536374 5.58627 0.532199 5.56566C0.528024 5.54505 0.528835 5.52374 0.534564 5.5035C0.552564 5.4335 0.566064 5.3615 0.579564 5.291C0.583564 5.266 0.590064 5.249 0.609564 5.248L0.608564 5.2485ZM0.525564 5.4385L0.528064 5.446C0.530564 5.462 0.524564 5.4785 0.518064 5.5025C0.512605 5.48869 0.512605 5.47331 0.518064 5.4595C0.520054 5.45249 0.522561 5.44564 0.525564 5.439V5.4385ZM5.88306 5.44C5.94806 5.439 6.01156 5.4425 6.07306 5.452C6.18306 5.4605 6.28306 5.481 6.34806 5.534C6.39556 5.554 6.44256 5.579 6.48806 5.606C6.59806 5.672 6.70806 5.7405 6.81906 5.8075C6.84226 5.82122 6.86235 5.83961 6.87806 5.8615L6.98956 6.019C6.99556 6.027 7.00456 6.037 6.99706 6.0475C6.99459 6.05087 6.99108 6.05333 6.98706 6.0545C6.97806 6.0565 6.97006 6.0535 6.96206 6.049C6.91306 6.021 6.86206 5.995 6.81306 5.967C6.62689 5.86423 6.42779 5.78687 6.22106 5.737C6.16756 5.722 6.11706 5.707 6.05956 5.6995L5.98356 5.6825C5.98156 5.684 5.98606 5.6885 5.99206 5.6945C5.99456 5.697 5.99706 5.6995 5.99806 5.702C6.00363 5.70871 6.01041 5.71431 6.01806 5.7185L6.02806 5.7235C6.14206 5.781 6.33456 5.817 6.47456 5.882L6.50356 5.8965C6.58156 5.9365 6.65256 5.9875 6.72356 6.0415L6.85756 6.145C7.05956 6.2915 7.18256 6.4895 7.24256 6.7295C7.24406 6.7365 7.24656 6.744 7.24756 6.751L7.25256 6.758C7.26256 6.773 7.26456 6.7905 7.26106 6.806C7.26206 6.81 7.26206 6.8135 7.26356 6.817C7.26106 6.852 7.23356 6.837 7.21756 6.837C7.11401 6.83137 7.01156 6.81289 6.91256 6.782H6.90956C6.88406 6.774 6.85056 6.762 6.82706 6.755C6.72156 6.7175 6.62206 6.6735 6.51956 6.636C6.39356 6.591 6.29456 6.5055 6.18856 6.4295C6.01071 6.30761 5.8433 6.17114 5.68806 6.0215C5.67138 6.00663 5.65778 5.98862 5.64806 5.9685C5.63722 5.94321 5.62688 5.91771 5.61706 5.892L5.59906 5.845C5.59536 5.83488 5.59136 5.82488 5.58706 5.815L5.58606 5.8125C5.58456 5.8115 5.58456 5.809 5.58456 5.8075V5.8065L5.58356 5.8015C5.57703 5.78145 5.57828 5.75967 5.58706 5.7405C5.58806 5.738 5.58806 5.7355 5.58956 5.7335L5.59206 5.725L5.59406 5.718C5.59556 5.7155 5.59556 5.7115 5.59656 5.7095L5.59806 5.702L5.59906 5.6935L5.60056 5.6865L5.60156 5.678L5.60256 5.671L5.60406 5.6625L5.60506 5.6555L5.60656 5.647C5.60656 5.6445 5.60656 5.642 5.60756 5.6395C5.60756 5.6375 5.60756 5.6335 5.60906 5.6315V5.4985C5.60756 5.4575 5.62206 5.4415 5.66306 5.443C5.70306 5.444 5.74406 5.4425 5.78456 5.4405L5.82206 5.4425C5.84206 5.4415 5.86206 5.44 5.88306 5.44ZM6.02506 5.706C6.02955 5.7079 6.03425 5.70924 6.03906 5.71H6.04006C6.03406 5.714 6.02606 5.7125 6.02356 5.72C6.02156 5.71 6.02256 5.7065 6.02506 5.706ZM6.46506 5.877C6.46703 5.87806 6.46903 5.87907 6.47106 5.88H6.47256L6.46506 5.877ZM5.51106 5.9655L5.51206 5.967C5.51556 5.9685 5.51906 5.972 5.52306 5.979C5.56106 6.056 5.61406 6.119 5.67306 6.1785C5.73506 6.2385 5.80256 6.2935 5.86756 6.3525C6.00156 6.4735 6.13856 6.5925 6.27656 6.709C6.36556 6.784 6.47256 6.823 6.58656 6.853C6.84556 6.919 7.11106 6.944 7.37406 6.98C7.44356 6.99 7.50606 7.0125 7.56106 7.058H7.55756C7.56256 7.062 7.56606 7.064 7.56956 7.068C7.42156 7.0465 7.27456 7.048 7.12656 7.045C6.96456 7.0415 6.80606 7.06 6.64656 7.0785C6.59023 7.08384 6.5334 7.07944 6.47856 7.0655C6.32456 7.0305 6.17956 6.968 6.03356 6.907C5.86956 6.837 5.73306 6.7305 5.60306 6.613L5.57456 6.5855C5.53228 6.5444 5.49758 6.49616 5.47206 6.443L5.47106 6.44C5.42606 6.334 5.42856 6.216 5.46306 6.086C5.47256 6.051 5.48306 6.016 5.49406 5.981C5.49756 5.97 5.50406 5.964 5.51106 5.9655ZM5.38706 6.5555C5.41956 6.672 5.50356 6.7535 5.57456 6.842L5.58906 6.8615L5.60306 6.8805C5.61871 6.89831 5.63651 6.9141 5.65606 6.9275C5.66456 6.9335 5.67106 6.9375 5.67906 6.944L5.68906 6.9525C5.77668 7.02146 5.86657 7.0875 5.95856 7.1505L6.12306 7.265C6.19756 7.3165 6.27556 7.36 6.35706 7.398C6.37706 7.408 6.39806 7.416 6.41856 7.4255C6.48056 7.452 6.54356 7.475 6.60806 7.4955L6.61806 7.499C6.65806 7.509 6.70156 7.513 6.74306 7.518C6.75906 7.519 6.77506 7.5215 6.78906 7.523C6.79966 7.5253 6.8098 7.52936 6.81906 7.535C6.83123 7.54214 6.84262 7.55052 6.85306 7.56C6.89006 7.5935 6.92506 7.6415 6.92706 7.67C6.92706 7.675 6.92706 7.679 6.92606 7.6825C6.92506 7.685 6.92506 7.686 6.92356 7.6875C6.91856 7.6955 6.91156 7.7025 6.90706 7.7115C6.89206 7.7365 6.87706 7.7615 6.86456 7.788L6.85906 7.8015C6.84984 7.82196 6.84515 7.84417 6.84533 7.86661C6.8455 7.88905 6.85053 7.91119 6.86006 7.9315C6.91756 7.8745 6.96906 7.8135 7.00656 7.7435C7.02409 7.71146 7.03849 7.6778 7.04956 7.643C7.05456 7.6295 7.05106 7.614 7.05456 7.601C7.05956 7.586 7.04256 7.566 7.04956 7.556C7.04956 7.5555 7.05106 7.5555 7.05206 7.554C7.05414 7.55238 7.05652 7.55119 7.05906 7.5505C7.06406 7.5495 7.06906 7.548 7.07256 7.548C7.08206 7.547 7.09056 7.5455 7.10006 7.5455C7.12406 7.5455 7.14706 7.5495 7.17006 7.5565C7.18406 7.5615 7.17956 7.579 7.17806 7.5925V7.595C7.17556 7.638 7.15806 7.6775 7.14206 7.716C7.13856 7.72538 7.13456 7.73456 7.13006 7.7435C7.10606 7.80978 7.07381 7.87278 7.03406 7.931C6.97506 8.009 6.90706 8.082 6.79656 8.086H6.76506C6.74606 8.086 6.72656 8.091 6.70756 8.092C6.69826 8.09138 6.68901 8.09383 6.68124 8.09898C6.67347 8.10413 6.66761 8.11169 6.66456 8.1205C6.65606 8.14 6.64456 8.1565 6.63556 8.1755L6.63206 8.184C6.58697 8.29347 6.51715 8.39102 6.42806 8.469C6.38806 8.504 6.34606 8.5385 6.30306 8.5705C6.2304 8.61809 6.1517 8.65576 6.06906 8.6825L6.05106 8.6895L6.03406 8.697L6.02406 8.7005C6.01906 8.7015 6.01356 8.704 6.00906 8.7055C5.99106 8.7125 5.97656 8.723 5.98606 8.7505C5.99606 8.7805 6.01756 8.789 6.04506 8.7905C6.05106 8.7905 6.05806 8.7905 6.06506 8.789C6.09066 8.78667 6.11585 8.78112 6.14006 8.7725C6.16406 8.764 6.18806 8.7525 6.21306 8.7425C6.23006 8.735 6.24656 8.7275 6.26456 8.722C6.24956 8.783 6.24206 8.8395 6.22256 8.892L6.21206 8.919C6.19756 8.95123 6.18256 8.98324 6.16706 9.015C6.15806 9.0365 6.14706 9.057 6.13606 9.0775C6.07856 9.1925 6.01356 9.3025 5.93356 9.405C5.88289 9.47009 5.82291 9.52737 5.75556 9.575C5.73859 9.58744 5.72142 9.59961 5.70406 9.6115C5.64348 9.65053 5.57995 9.6848 5.51406 9.714L5.48206 9.729L5.45556 9.739L5.43406 9.748C5.41406 9.756 5.39306 9.763 5.37256 9.7705C5.34486 9.78025 5.31685 9.78909 5.28856 9.797C5.195 9.82506 5.09983 9.84743 5.00356 9.864C4.99956 9.864 4.99706 9.8655 4.99356 9.8655C4.96606 9.8705 4.93956 9.874 4.91206 9.8785C4.88306 9.8825 4.85406 9.887 4.82406 9.8905C4.72326 9.90141 4.62143 9.89804 4.52156 9.8805L4.50756 9.8765C4.48232 9.86933 4.45799 9.85926 4.43506 9.8465C4.40406 9.8295 4.37506 9.8115 4.34406 9.7965C4.32188 9.78527 4.3002 9.7731 4.27906 9.76C4.25151 9.74372 4.2248 9.72603 4.19906 9.707C4.14748 9.67305 4.10698 9.62472 4.08256 9.568C4.06918 9.53478 4.05382 9.50239 4.03656 9.471C4.03156 9.461 4.02606 9.453 4.02156 9.4445C3.98066 9.37953 3.93433 9.31814 3.88306 9.261C3.86305 9.23663 3.8422 9.21295 3.82056 9.19C3.81006 9.178 3.80056 9.166 3.78956 9.155C3.74747 9.10785 3.70412 9.06183 3.65956 9.017L3.62606 8.9835C3.56979 8.9281 3.5089 8.87759 3.44406 8.8325C3.39568 8.79728 3.34508 8.76521 3.29256 8.7365L3.26256 8.7165C3.11959 8.6266 3.00919 8.49324 2.94756 8.336C2.92606 8.2895 2.89406 8.275 2.83756 8.274C2.79436 8.27473 2.75147 8.26656 2.71156 8.25L2.71056 8.249C2.68631 8.2389 2.66399 8.22469 2.64456 8.207L2.63156 8.199C2.62056 8.186 2.61256 8.17 2.60256 8.154C2.5304 8.04912 2.4659 7.93916 2.40956 7.825C2.40956 7.8265 2.41056 7.8275 2.41106 7.829L2.40806 7.8225L2.40956 7.825C2.39831 7.792 2.38613 7.75932 2.37306 7.727L2.35506 7.684C2.34751 7.65908 2.34512 7.63288 2.34806 7.607L2.35156 7.5915C2.35256 7.589 2.35256 7.5865 2.35406 7.584C2.3555 7.57879 2.35751 7.57376 2.36006 7.569C2.37616 7.54152 2.39778 7.51769 2.42356 7.499C2.43434 7.49015 2.44552 7.48181 2.45706 7.474C2.48006 7.457 2.50406 7.4425 2.52706 7.427C2.56256 7.405 2.59856 7.385 2.63606 7.3655C2.77156 7.2955 2.91606 7.2465 3.06456 7.2085C3.07306 7.206 3.08106 7.2045 3.09106 7.2025C3.10756 7.1985 3.12606 7.1975 3.14356 7.195C3.16156 7.194 3.17956 7.1925 3.19656 7.1925L3.24956 7.1915C3.25756 7.1915 3.26756 7.1915 3.27556 7.1905C3.4258 7.18379 3.57585 7.17329 3.72556 7.159C3.81556 7.1505 3.90556 7.141 3.99556 7.1315C4.19116 7.10954 4.38166 7.05477 4.55906 6.9695C4.57706 6.9595 4.59606 6.9515 4.61406 6.942L4.64556 6.925C4.71756 6.8865 4.78956 6.8495 4.85906 6.8085C4.86606 6.7985 4.87406 6.7955 4.88656 6.792L4.89156 6.7905V6.7965C4.89024 6.80313 4.88672 6.80912 4.88156 6.8135L4.87106 6.8205C4.80106 6.9095 4.70556 6.9705 4.62256 7.0455C4.61364 7.05231 4.60527 7.05984 4.59756 7.068C4.57106 7.0895 4.54456 7.1125 4.51456 7.1365C4.61906 7.1365 4.71956 7.1245 4.81356 7.0965C4.98729 7.04666 5.1399 6.94129 5.24806 6.7965C5.29956 6.728 5.34656 6.648 5.38706 6.5555ZM3.75456 6.5635C3.70034 6.58988 3.64257 6.60824 3.58306 6.618C3.30306 6.6875 3.01806 6.728 2.73456 6.781C2.53386 6.81774 2.3446 6.90115 2.18206 7.0245C2.17256 7.032 2.16206 7.0405 2.15106 7.046C2.13806 7.0545 2.13156 7.0525 2.12956 7.041C2.12806 7.039 2.12806 7.0355 2.12806 7.032C2.12306 6.96 2.14506 6.925 2.21106 6.895C2.30106 6.854 2.39106 6.811 2.48106 6.769C2.59856 6.715 2.72456 6.698 2.85206 6.685C3.05006 6.6635 3.24806 6.638 3.44706 6.615L3.70906 6.572L3.75456 6.5635ZM4.94756 7.186H4.93456C4.91556 7.191 4.91656 7.211 4.91656 7.226C4.91806 7.276 4.92006 7.327 4.92656 7.3775C4.93156 7.4325 4.95006 7.487 4.98256 7.531C5.04372 7.61656 5.13469 7.67614 5.23756 7.698C5.31506 7.716 5.31506 7.717 5.32256 7.798C5.32606 7.8325 5.33056 7.863 5.36256 7.883C5.41956 7.9165 5.47606 7.9515 5.54456 7.956C5.58656 7.9595 5.62956 7.962 5.66556 7.99C5.71296 8.02162 5.76859 8.03865 5.82556 8.039C5.86756 8.0425 5.91056 8.044 5.95256 8.051C5.98606 8.057 6.00906 8.046 6.03256 8.026C6.15206 7.9275 6.26956 7.8275 6.38106 7.7175C6.36806 7.7025 6.34856 7.6975 6.32206 7.7115C6.25152 7.74605 6.1823 7.78324 6.11456 7.823C6.09749 7.83463 6.07829 7.84278 6.05806 7.847C5.93909 7.87016 5.81826 7.88254 5.69706 7.884C5.6307 7.88078 5.56673 7.85818 5.51306 7.819C5.47956 7.7975 5.44606 7.7665 5.44006 7.7185C5.45806 7.7125 5.47506 7.7195 5.49156 7.722C5.55506 7.7305 5.61756 7.7535 5.68256 7.7495C5.83856 7.7395 5.98506 7.693 6.13156 7.643L6.27306 7.5915C6.29456 7.584 6.30056 7.5765 6.28156 7.5565C6.25856 7.5315 6.23356 7.5365 6.20806 7.5395C5.89733 7.58424 5.58129 7.57663 5.27306 7.517C5.18306 7.5 5.08706 7.494 5.05206 7.382C5.04206 7.352 5.03306 7.322 5.02706 7.291C5.01925 7.25899 5.00302 7.22964 4.98006 7.206C4.97635 7.20058 4.97153 7.196 4.96594 7.19255C4.96034 7.18911 4.95408 7.18688 4.94756 7.186ZM4.66106 7.2185C4.63706 7.2185 4.62106 7.2435 4.60956 7.265C4.57956 7.3165 4.54106 7.363 4.50606 7.411C4.45206 7.4845 4.37606 7.5 4.29706 7.488C4.01234 7.44426 3.72567 7.41422 3.43806 7.398C3.42306 7.397 3.40906 7.393 3.39706 7.403C3.30556 7.47 3.21356 7.535 3.15556 7.637C3.15906 7.638 3.16306 7.6405 3.16556 7.6405C3.17506 7.6395 3.18306 7.637 3.19306 7.6355C3.34156 7.5985 3.49656 7.5865 3.65406 7.5995C3.85306 7.6165 4.05006 7.656 4.24806 7.6835C4.27456 7.6875 4.30106 7.6885 4.32606 7.7015C4.38606 7.733 4.41606 7.788 4.43906 7.8465C4.47406 7.9365 4.48406 8.033 4.49056 8.129C4.49556 8.204 4.47956 8.268 4.41856 8.319C4.37144 8.35366 4.33644 8.4023 4.31856 8.458C4.39556 8.458 4.46156 8.471 4.51206 8.536C4.54356 8.576 4.58406 8.6105 4.62356 8.645C4.64419 8.66452 4.66893 8.67916 4.69597 8.68783C4.72301 8.6965 4.75166 8.69899 4.77979 8.6951C4.80792 8.69121 4.83481 8.68105 4.85849 8.66537C4.88216 8.64969 4.90201 8.62888 4.91656 8.6045C4.94556 8.5575 4.97306 8.5095 5.00406 8.464C5.04756 8.4005 5.08906 8.332 5.16656 8.304C5.21306 8.289 5.19256 8.266 5.17656 8.2465C5.14606 8.2065 5.08806 8.206 5.03656 8.2365C4.95656 8.285 4.90356 8.356 4.84606 8.4245C4.82906 8.4445 4.81206 8.4645 4.78956 8.482C4.76056 8.502 4.73556 8.5035 4.70956 8.477C4.68156 8.4485 4.65256 8.4185 4.62156 8.393C4.59506 8.3715 4.59006 8.352 4.60556 8.321C4.63927 8.25771 4.65354 8.18587 4.64656 8.1145C4.63156 7.9585 4.60656 7.8045 4.49656 7.681C4.48456 7.668 4.48456 7.661 4.50156 7.649C4.55958 7.60951 4.60801 7.55754 4.64331 7.49688C4.67861 7.43623 4.69988 7.36845 4.70556 7.2985C4.70906 7.261 4.70206 7.231 4.67206 7.2205C4.66852 7.21929 4.66481 7.21861 4.66106 7.2185ZM6.89106 7.236C6.99406 7.236 7.08506 7.276 7.17456 7.327C7.17206 7.327 7.17106 7.327 7.16856 7.3285L7.18356 7.337C7.04856 7.357 6.91356 7.367 6.77856 7.352C6.73656 7.347 6.69456 7.339 6.65106 7.3405C6.56606 7.343 6.49756 7.2985 6.42556 7.26H6.43406C6.42806 7.2565 6.42206 7.254 6.41606 7.25C6.42806 7.2515 6.44106 7.2515 6.45306 7.2525C6.46756 7.254 6.48056 7.2575 6.49506 7.26C6.61406 7.285 6.72906 7.25 6.84706 7.2385C6.86184 7.23684 6.8762 7.23601 6.89106 7.236ZM2.54656 7.593C2.5438 7.59317 2.54108 7.59385 2.53856 7.595C2.51356 7.6045 2.48956 7.619 2.48256 7.6525C2.45856 7.764 2.51006 7.871 2.62156 7.9285C2.67156 7.955 2.71056 7.992 2.73456 8.0435C2.74256 8.062 2.74406 8.0965 2.77056 8.0905C2.79656 8.0845 2.77556 8.052 2.78106 8.039C2.78506 7.9715 2.77156 7.914 2.71756 7.879C2.67756 7.854 2.66256 7.819 2.64756 7.7785C2.62856 7.7255 2.62406 7.667 2.58056 7.625C2.57056 7.6145 2.56306 7.593 2.54656 7.593ZM3.46806 7.77C3.41306 7.7835 3.35006 7.7965 3.29156 7.823C3.25056 7.842 3.24806 7.865 3.28406 7.8925C3.30556 7.9095 3.32756 7.9175 3.35406 7.9075C3.39556 7.89108 3.44089 7.88693 3.48468 7.89552C3.52846 7.90412 3.56886 7.92511 3.60106 7.956C3.63645 7.98658 3.67957 8.00681 3.7257 8.01449C3.77183 8.02216 3.81919 8.01697 3.86256 7.9995C3.91556 7.9815 3.96106 7.9515 4.00906 7.9245C4.02646 7.91432 4.04564 7.90754 4.06556 7.9045C4.13756 7.8975 4.20956 7.888 4.28056 7.878C4.29956 7.8755 4.32956 7.883 4.33456 7.86C4.33956 7.836 4.31156 7.8215 4.29456 7.806C4.28656 7.7975 4.27206 7.796 4.25956 7.793C4.18891 7.77086 4.11357 7.76827 4.04156 7.7855C3.89527 7.81727 3.74386 7.81727 3.59756 7.7855C3.55756 7.7755 3.51606 7.7755 3.46756 7.7705L3.46806 7.77ZM6.91956 8.2145C6.92256 8.2145 6.92456 8.216 6.92706 8.218C6.92948 8.21994 6.93151 8.22232 6.93306 8.225L6.93706 8.2275C6.95856 8.2445 6.93356 8.2825 6.92706 8.3115C6.91206 8.3955 6.89856 8.4785 6.88406 8.5625C6.88056 8.5865 6.87806 8.6115 6.86006 8.645L6.85656 8.6235L6.85056 8.6355C6.8302 8.5188 6.81767 8.40087 6.81306 8.2825C6.81206 8.256 6.83006 8.25 6.84706 8.244C6.87106 8.236 6.90056 8.211 6.91956 8.214V8.2145ZM5.30956 8.6655C5.30566 8.6666 5.30196 8.66829 5.29856 8.6705C5.20356 8.723 5.09656 8.7255 4.99206 8.739C4.94806 8.745 4.89206 8.7315 4.86006 8.764C4.78106 8.842 4.71356 8.809 4.64406 8.754C4.64056 8.752 4.63706 8.7485 4.63206 8.747C4.52906 8.692 4.42556 8.672 4.32006 8.7445C4.30145 8.75922 4.27994 8.76986 4.25694 8.77572C4.23393 8.78158 4.20996 8.78253 4.18656 8.7785C4.14956 8.7685 4.12106 8.771 4.09156 8.7975C4.07756 8.811 4.05856 8.8215 4.04156 8.8325C3.99456 8.8635 3.99456 8.8685 4.03806 8.9025C4.04806 8.9115 4.05956 8.915 4.07156 8.919C4.17156 8.949 4.26506 8.927 4.35256 8.879C4.44356 8.83 4.52906 8.8325 4.61156 8.895C4.68756 8.951 4.76756 8.9525 4.85156 8.9175C4.95591 8.86949 5.06548 8.83375 5.17806 8.811C5.19506 8.8085 5.21206 8.8025 5.22756 8.816C5.27556 8.86 5.32106 8.829 5.36706 8.811C5.38506 8.8035 5.38706 8.789 5.38606 8.771C5.38256 8.733 5.35356 8.711 5.33706 8.681C5.32956 8.6685 5.32106 8.6635 5.31006 8.666L5.30956 8.6655ZM2.95106 8.7005C2.95556 8.7005 2.96106 8.7035 2.96706 8.709C2.98656 8.727 3.00456 8.746 3.02356 8.764L3.03106 8.771C3.04056 8.7795 3.04156 8.7905 3.03706 8.801L2.92506 9.026L2.91306 9.022C2.91306 9.0195 2.91456 9.0185 2.91456 9.016C2.93856 8.9175 2.92906 8.816 2.94206 8.716C2.94306 8.706 2.94656 8.701 2.95106 8.701V8.7005ZM4.90106 8.9945C4.78206 8.998 4.66106 9.0175 4.54956 9.0555C4.45706 9.087 4.35356 9.1085 4.30556 9.2155C4.27806 9.2775 4.28156 9.3435 4.26256 9.4055C4.27106 9.4555 4.27106 9.504 4.29956 9.546C4.30806 9.558 4.31156 9.5775 4.33206 9.576C4.35356 9.575 4.36106 9.557 4.36706 9.5425C4.38856 9.4975 4.39356 9.4455 4.40706 9.3975C4.43056 9.3195 4.46656 9.2575 4.54806 9.2225C4.63306 9.1865 4.71956 9.1525 4.80606 9.1195C4.82185 9.11289 4.83916 9.11081 4.85606 9.1135C4.96356 9.1285 5.07506 9.1235 5.17006 9.1865C5.17454 9.18958 5.1796 9.1917 5.18494 9.19273C5.19027 9.19376 5.19576 9.19369 5.20106 9.1925C5.23706 9.184 5.24106 9.1725 5.21906 9.1435C5.18309 9.09369 5.13501 9.05386 5.07937 9.02779C5.02373 9.00172 4.96236 8.99026 4.90106 8.9945ZM3.79206 9.365L3.79906 9.3735C3.84606 9.432 3.89256 9.4825 3.92406 9.5415C3.99906 9.6865 4.11106 9.792 4.25506 9.869C4.32256 9.905 4.38306 9.955 4.46206 9.964L4.46356 9.9645H4.47256C4.48106 9.9645 4.49256 9.9625 4.49056 9.976C4.48906 9.983 4.48206 9.983 4.47506 9.982H4.47156C4.46906 9.982 4.46656 9.982 4.46406 9.9805C4.38056 9.983 4.29906 9.997 4.21756 10.014C4.17506 10.023 4.13256 10.033 4.09006 10.043C4.04971 10.0528 4.00921 10.062 3.96856 10.0705H3.96706C3.95056 10.0745 3.94306 10.0825 3.94556 10.0995C3.94806 10.1195 3.95556 10.1305 3.97906 10.1355C4.0243 10.1431 4.07023 10.146 4.11606 10.144C4.17506 10.1425 4.23356 10.1365 4.29256 10.127C4.42145 10.1072 4.55258 10.1068 4.68156 10.126C4.46656 10.161 4.28906 10.282 4.09456 10.3635C3.99356 10.4055 3.91556 10.486 3.81956 10.5375C3.81256 10.546 3.80856 10.5595 3.80156 10.5675C3.78606 10.5875 3.78356 10.6265 3.75806 10.6225H3.75606C3.75356 10.6225 3.75106 10.624 3.74856 10.6225C3.70155 10.6184 3.65607 10.6037 3.61556 10.5795C3.60056 10.57 3.60456 10.552 3.60456 10.535V10.3085C3.60456 10.2925 3.61056 10.275 3.59506 10.2635C3.54206 10.2305 3.55506 10.1725 3.54206 10.1245C3.53706 10.1055 3.55056 10.096 3.56156 10.0845L3.70056 9.9295C3.73206 9.8955 3.74506 9.858 3.72206 9.8175C3.67906 9.736 3.68606 9.6575 3.72106 9.575C3.74856 9.51 3.76656 9.4415 3.79206 9.365ZM6.08456 9.4535C6.08706 9.455 6.08956 9.456 6.09056 9.4575L6.09406 9.4535C6.11356 9.4645 6.11406 9.4785 6.11906 9.491C6.17006 9.6145 6.21906 9.7395 6.26906 9.863C6.28156 9.8905 6.28406 9.9145 6.26606 9.938C6.23898 9.97201 6.22119 10.0125 6.21444 10.0554C6.20769 10.0984 6.21221 10.1423 6.22756 10.183C6.26106 10.2855 6.23706 10.3565 6.13606 10.407C6.11813 10.4185 6.09735 10.4247 6.07606 10.425C6.06001 10.4259 6.04423 10.4205 6.03206 10.41C5.84456 10.2805 5.62156 10.2375 5.41106 10.163C5.38106 10.153 5.35256 10.1415 5.32106 10.1345C5.28506 10.126 5.28756 10.102 5.29256 10.0765C5.29606 10.0585 5.30556 10.0565 5.31506 10.0575C5.32506 10.055 5.33806 10.0625 5.34656 10.0645C5.58656 10.1245 5.82906 10.1725 6.06056 10.2625C6.06906 10.2665 6.07556 10.2675 6.08206 10.269C6.09906 10.2665 6.10406 10.2505 6.10156 10.228C6.09656 10.174 6.09156 10.121 6.02956 10.093C5.87543 10.025 5.71028 9.98535 5.54206 9.976C5.51706 9.9735 5.49306 9.9725 5.46706 9.971C5.58656 9.899 5.71706 9.861 5.82406 9.768C5.83712 9.75747 5.84963 9.74629 5.86156 9.7345L6.06056 9.4935L6.08456 9.4535ZM5.14356 10.02H5.15356C5.16856 10.019 5.18056 10.0225 5.18206 10.0465C5.18206 10.0685 5.18706 10.0875 5.15206 10.0925C5.10674 10.0996 5.06093 10.1031 5.01506 10.103C4.96806 10.103 4.92256 10.098 4.87606 10.088C4.85106 10.0815 4.84106 10.0645 4.84356 10.0445C4.84456 10.031 4.85356 10.031 4.86356 10.031C4.8701 10.0302 4.87672 10.0308 4.88306 10.0325H4.97306C5.03001 10.037 5.08732 10.033 5.14306 10.0205L5.14356 10.02ZM5.16156 10.218C5.16456 10.218 5.16756 10.219 5.17156 10.2205L5.59356 10.3955C5.52756 10.4505 5.46656 10.499 5.40656 10.547C5.29606 10.636 5.18656 10.726 5.08356 10.8235C5.05856 10.8475 5.03856 10.8485 5.01006 10.8305C4.8334 10.7277 4.65017 10.6367 4.46156 10.558C4.37906 10.523 4.29156 10.509 4.20606 10.479C4.21606 10.461 4.23356 10.461 4.24806 10.456C4.43156 10.3875 4.61906 10.326 4.79906 10.246C4.84606 10.2245 4.89256 10.2425 4.93806 10.2485C5.00656 10.2585 5.07306 10.259 5.13506 10.2255C5.14292 10.2204 5.15217 10.2177 5.16156 10.218ZM4.08106 10.567C4.09512 10.5678 4.10895 10.5709 4.12206 10.576C4.22056 10.6145 4.31206 10.6685 4.40656 10.713C4.40919 10.7128 4.41182 10.7132 4.41431 10.7141C4.4168 10.7149 4.41909 10.7163 4.42106 10.718C4.42306 10.719 4.42356 10.72 4.42356 10.7235V10.726C4.42356 10.7275 4.42206 10.7275 4.42206 10.7285C4.42106 10.73 4.41956 10.73 4.41856 10.73L4.41356 10.7285C4.41103 10.7271 4.40894 10.725 4.40756 10.7225L3.97656 10.6155C4.01356 10.586 4.04306 10.5655 4.08106 10.567ZM8.16606 10.8345C8.09506 10.8325 8.03606 10.8655 7.98006 10.9095C7.96506 10.9205 7.95706 10.9335 7.93306 10.918C7.88056 10.882 7.83006 10.8915 7.78556 10.938C7.76036 10.9638 7.74257 10.9959 7.73406 11.031C7.67156 11.283 7.60806 11.534 7.54806 11.787C7.52756 11.872 7.57206 11.9145 7.65956 11.902C7.73856 11.889 7.77856 11.8435 7.79156 11.742C7.80456 11.643 7.81806 11.546 7.84656 11.444C7.92156 11.5375 7.99156 11.625 8.06306 11.713C8.13256 11.798 8.20806 11.8735 8.31006 11.919C8.38206 11.9515 8.44456 11.9325 8.50106 11.882C8.51566 11.8697 8.52612 11.8533 8.53104 11.8348C8.53596 11.8164 8.53509 11.7969 8.52856 11.779C8.52482 11.761 8.51485 11.7448 8.50041 11.7334C8.48597 11.722 8.46797 11.716 8.44956 11.7165C8.42092 11.7141 8.39403 11.7017 8.37356 11.6815C8.30562 11.6229 8.24486 11.5564 8.19256 11.4835C8.14756 11.4235 8.14556 11.4235 8.20556 11.3825C8.33156 11.296 8.37556 11.174 8.36656 11.0275C8.35956 10.918 8.30056 10.8545 8.19656 10.8375C8.18648 10.8358 8.17629 10.8348 8.16606 10.8345ZM2.79956 10.8495C2.77956 10.8495 2.76106 10.8595 2.75106 10.887C2.74156 10.912 2.72456 10.9085 2.70556 10.906C2.64538 10.8959 2.58364 10.9007 2.5257 10.9199C2.46777 10.939 2.41538 10.972 2.37306 11.016C2.18306 11.201 2.08606 11.4225 2.09706 11.6925C2.10406 11.8715 2.20706 11.9575 2.38156 11.918C2.72606 11.838 2.99356 11.5005 3.00806 11.127C3.01156 11.031 2.92406 10.892 2.83806 10.858C2.82583 10.853 2.81278 10.8503 2.79956 10.85V10.8495ZM1.83456 10.8785C1.72143 10.8801 1.61264 10.9223 1.52806 10.9975C1.35506 11.1485 1.25456 11.344 1.20506 11.5665C1.18537 11.6486 1.19884 11.7352 1.24256 11.8075C1.27756 11.8665 1.32156 11.888 1.38856 11.875C1.54032 11.846 1.68692 11.7946 1.82356 11.7225C1.86538 11.7008 1.90338 11.6724 1.93606 11.6385C1.96291 11.6113 1.97799 11.5747 1.97806 11.5365C1.97806 11.499 1.96156 11.4865 1.92656 11.4845C1.89156 11.4835 1.86156 11.4965 1.83056 11.5075C1.72706 11.545 1.62656 11.5905 1.51956 11.6175C1.46706 11.631 1.44956 11.619 1.43806 11.565C1.43472 11.5447 1.43557 11.5239 1.44056 11.504C1.46056 11.42 1.48956 11.339 1.53406 11.2625C1.56344 11.2065 1.60537 11.1581 1.65656 11.121C1.72656 11.0765 1.79806 11.0525 1.87756 11.101C1.90356 11.116 1.92906 11.109 1.95256 11.0945C1.98896 11.0715 2.01564 11.0359 2.02756 10.9945C2.03556 10.9695 2.02856 10.9495 2.00556 10.936C1.95375 10.9035 1.89497 10.8838 1.83406 10.8785H1.83456ZM6.43456 10.9135C6.38669 10.9118 6.339 10.9201 6.2945 10.9379C6.25001 10.9556 6.20968 10.9824 6.17606 11.0165C6.09806 11.097 6.08456 11.1785 6.13406 11.2795C6.17106 11.355 6.22256 11.4195 6.27306 11.487C6.30906 11.534 6.34756 11.5805 6.38106 11.63C6.40506 11.665 6.39306 11.6925 6.35206 11.7055C6.3292 11.7132 6.30432 11.7123 6.28206 11.703C6.21267 11.6779 6.14918 11.6387 6.09556 11.588C6.07567 11.572 6.06132 11.5501 6.05456 11.5255C6.04856 11.4885 6.02806 11.4715 5.99206 11.468C5.95156 11.4645 5.91406 11.4645 5.89006 11.508C5.85006 11.577 5.86156 11.6395 5.93356 11.7045C6.07156 11.827 6.23606 11.881 6.40006 11.8945C6.55006 11.8965 6.64256 11.761 6.59356 11.6335C6.57206 11.576 6.53456 11.5255 6.49856 11.4765C6.43856 11.397 6.37606 11.32 6.32006 11.2385C6.27506 11.176 6.29606 11.1305 6.36906 11.1065C6.43656 11.085 6.49406 11.104 6.54906 11.1465C6.61406 11.1965 6.66906 11.17 6.68356 11.0885C6.69206 11.0455 6.66856 11.0165 6.63856 10.9915C6.58079 10.9434 6.5087 10.9158 6.43356 10.913L6.43456 10.9135ZM7.38706 10.9435C7.31856 10.942 7.25006 10.9435 7.18206 10.9515C7.10006 10.9615 7.02206 10.984 6.99206 11.0755C6.99106 11.0805 6.98506 11.0875 6.98006 11.0885C6.88656 11.1125 6.85406 11.1895 6.82906 11.2675C6.77606 11.4405 6.72906 11.6155 6.68006 11.7885C6.66806 11.8305 6.68506 11.8585 6.72006 11.8795C6.74706 11.8965 6.77506 11.8955 6.80606 11.887C6.96806 11.847 7.13006 11.804 7.29956 11.816C7.32162 11.8166 7.34347 11.8116 7.36306 11.8015C7.38351 11.7894 7.39996 11.7716 7.41036 11.7503C7.42076 11.729 7.42466 11.705 7.42156 11.6815C7.41456 11.6365 7.37856 11.623 7.34006 11.6165C7.31075 11.6121 7.2812 11.6094 7.25156 11.6085C7.1477 11.6088 7.04403 11.6175 6.94156 11.6345C6.95656 11.5205 6.96556 11.5135 7.07356 11.5135C7.15356 11.5135 7.23456 11.5085 7.31006 11.4775C7.36006 11.456 7.39306 11.421 7.39806 11.3645C7.40156 11.3265 7.38556 11.3035 7.34606 11.3025C7.3144 11.301 7.28269 11.3013 7.25106 11.3035L7.02456 11.3235C7.03656 11.2975 7.04256 11.2735 7.05556 11.2555C7.07756 11.2245 7.05206 11.1665 7.09756 11.151C7.13506 11.139 7.17956 11.1475 7.22006 11.146C7.32706 11.144 7.43356 11.1425 7.53706 11.109C7.57557 11.099 7.60946 11.076 7.63306 11.044C7.66806 10.99 7.65456 10.954 7.59206 10.9515C7.52406 10.9485 7.45556 10.945 7.38706 10.9435ZM4.05506 10.9475C4.01956 10.946 3.99006 10.9685 3.96256 10.994C3.89196 11.0614 3.82645 11.1339 3.76656 11.211L3.58306 11.439C3.57306 11.451 3.56306 11.474 3.54306 11.464C3.52806 11.457 3.53406 11.4365 3.53606 11.421C3.54106 11.366 3.54806 11.312 3.55406 11.2565C3.56156 11.1845 3.57106 11.1125 3.55906 11.0405C3.54356 10.954 3.48106 10.9305 3.41156 10.984C3.39473 10.9979 3.37902 11.0131 3.36456 11.0295C3.30941 11.0944 3.25959 11.1636 3.21556 11.2365C3.10306 11.4105 2.99956 11.5915 2.86406 11.75C2.83906 11.78 2.81256 11.809 2.78956 11.841C2.76556 11.877 2.75606 11.918 2.77856 11.956C2.79906 11.99 2.83356 12.002 2.87256 11.9995C2.91306 11.9975 2.93506 11.9675 2.95656 11.9385L3.26956 11.5125C3.27556 11.505 3.27806 11.4905 3.29606 11.4955C3.29332 11.5137 3.29132 11.5321 3.29006 11.5505C3.28506 11.619 3.27106 11.6875 3.28506 11.757C3.30206 11.837 3.36506 11.869 3.43806 11.833C3.47548 11.8126 3.50983 11.787 3.54006 11.757C3.59856 11.701 3.65406 11.6405 3.70506 11.576C3.76206 11.504 3.81956 11.431 3.87956 11.3525C3.89756 11.4125 3.89056 11.4665 3.88806 11.5205C3.88206 11.6145 3.86406 11.708 3.88206 11.803C3.89406 11.8615 3.92756 11.8965 3.97556 11.9C4.02451 11.9042 4.07344 11.8919 4.11456 11.865C4.17706 11.8255 4.18306 11.7465 4.12456 11.6935C4.10778 11.6789 4.09663 11.6589 4.09306 11.637C4.08006 11.572 4.09106 11.5085 4.10156 11.445C4.12106 11.3225 4.15906 11.2025 4.15306 11.0765C4.15106 11.0275 4.14306 10.9815 4.09306 10.958C4.08123 10.9521 4.06829 10.9481 4.05506 10.9475ZM8.07506 11.0425C8.13356 11.0375 8.16256 11.074 8.14506 11.1305C8.13779 11.1546 8.12591 11.177 8.11006 11.1965C8.04606 11.277 7.96456 11.3315 7.86256 11.373C7.87079 11.2999 7.88931 11.2284 7.91756 11.1605C7.94856 11.0935 7.99906 11.0495 8.07506 11.0425ZM4.74956 11.0525C4.77563 11.0514 4.80153 11.0572 4.82456 11.0695C4.86256 11.091 4.87356 11.1425 4.84706 11.186C4.8225 11.2224 4.79108 11.2536 4.75456 11.278C4.68227 11.3331 4.60038 11.3743 4.51306 11.3995C4.54806 11.2915 4.57706 11.192 4.63556 11.1065C4.64917 11.0894 4.66652 11.0756 4.68629 11.0663C4.70605 11.0569 4.7277 11.0522 4.74956 11.0525ZM5.54956 11.098C5.58587 11.096 5.62219 11.1018 5.65606 11.115C5.71256 11.138 5.73106 11.165 5.73056 11.25C5.71408 11.4083 5.63814 11.5545 5.51806 11.659C5.47272 11.6984 5.41594 11.7222 5.35606 11.727C5.28256 11.733 5.22506 11.687 5.23256 11.613C5.24656 11.453 5.29006 11.301 5.39756 11.175C5.41643 11.1526 5.43961 11.1343 5.46573 11.121C5.49184 11.1078 5.52036 11.1 5.54956 11.098ZM2.60856 11.0995C2.64578 11.0973 2.68302 11.1035 2.71756 11.1175C2.77256 11.139 2.79206 11.1665 2.78956 11.2485C2.77416 11.4068 2.69864 11.5532 2.57856 11.6575C2.53299 11.6972 2.47619 11.7216 2.41606 11.7275C2.34106 11.733 2.28306 11.6865 2.29006 11.611C2.30506 11.4535 2.34806 11.3045 2.45256 11.181C2.4716 11.1575 2.49527 11.1381 2.5221 11.1241C2.54894 11.11 2.57837 11.1017 2.60856 11.0995Z" fill="black"/>
</svg>
