<svg width="9" height="9" viewBox="0 0 9 9" fill="none" xmlns="http://www.w3.org/2000/svg">
<path d="M5.1672 6.5275L4.7382 7.1215C5.1452 7.4845 5.6512 7.666 6.2562 7.666C6.7182 7.655 7.0702 7.53585 7.3122 7.3085C7.55785 7.0775 7.6807 6.8025 7.6807 6.4835C7.6807 6.17185 7.59455 5.91515 7.4222 5.7135C7.24985 5.51185 6.9602 5.3505 6.5532 5.2295C6.21585 5.12685 5.97755 5.03335 5.8382 4.949C5.69885 4.861 5.6292 4.75465 5.6292 4.63C5.6292 4.51635 5.68605 4.42465 5.7997 4.355C5.91335 4.28535 6.06555 4.2505 6.2562 4.2505C6.39555 4.2505 6.5532 4.278 6.7292 4.333C6.9052 4.38065 7.06105 4.45765 7.1967 4.564L7.5817 3.9645C7.24435 3.69315 6.79705 3.5575 6.2397 3.5575C5.84005 3.5575 5.51185 3.66015 5.2552 3.8655C4.9912 4.07085 4.8592 4.32565 4.8592 4.63C4.86285 4.95265 4.9692 5.20385 5.1782 5.3835C5.39085 5.56315 5.69335 5.70985 6.0857 5.8235C6.41205 5.92615 6.63385 6.02885 6.7512 6.1315C6.86485 6.23415 6.9217 6.35885 6.9217 6.5055C6.9217 6.6485 6.86485 6.7585 6.7512 6.8355C6.63385 6.91615 6.4652 6.9565 6.2452 6.9565C5.88585 6.96015 5.52655 6.81715 5.1672 6.5275ZM2.40202 6.8465C2.29202 6.7805 2.18936 6.68335 2.09402 6.555L1.57702 6.9785C1.73102 7.23885 1.92169 7.42035 2.14902 7.523C2.36169 7.61835 2.60553 7.666 2.88053 7.666C3.03086 7.666 3.18669 7.64215 3.34802 7.5945C3.50935 7.54685 3.65785 7.46615 3.79355 7.3525C4.03185 7.16185 4.15655 6.85015 4.16755 6.4175V3.6235H3.42502V6.2745C3.42502 6.5275 3.3682 6.70535 3.25453 6.808C3.14086 6.907 2.99786 6.9565 2.82552 6.9565C2.66052 6.9565 2.51936 6.91985 2.40202 6.8465ZM0 1.5C0 0.671575 0.671575 0 1.5 0H7.5C8.32845 0 9 0.671575 9 1.5V7.5C9 8.32845 8.32845 9 7.5 9H1.5C0.671575 9 0 8.32845 0 7.5V1.5ZM1.5 1C1.22386 1 1 1.22386 1 1.5V7.5C1 7.77615 1.22386 8 1.5 8H7.5C7.77615 8 8 7.77615 8 7.5V1.5C8 1.22386 7.77615 1 7.5 1H1.5Z" fill="black"/>
</svg>
