<svg width="10" height="10" viewBox="0 0 10 10" fill="none" xmlns="http://www.w3.org/2000/svg">
<path d="M5.02576 0.200562C2.33776 0.200562 0.150757 2.38756 0.150757 5.07556C0.150757 7.76356 2.33776 9.95056 5.02576 9.95056C7.71376 9.95056 9.90076 7.76356 9.90076 5.07556C9.90076 2.38756 7.71376 0.200562 5.02576 0.200562ZM5.02576 0.950562C7.30013 0.950562 9.15076 2.80119 9.15076 5.07556C9.15076 7.34994 7.30013 9.20056 5.02576 9.20056C2.75138 9.20056 0.900757 7.34994 0.900757 5.07556C0.900757 2.80119 2.75138 0.950562 5.02576 0.950562ZM6.62756 2.85413C6.60019 2.85488 5.68507 2.80367 5.14807 4.3783C5.00257 4.25867 4.31341 3.43699 3.55066 4.00549C3.27691 4.21024 3.09607 4.69824 3.50745 5.15686C3.75232 5.41899 3.89348 5.52292 3.82898 5.73254C3.6966 6.16304 3.02616 5.96569 3.09216 5.75232C3.11166 5.68857 3.14286 5.68748 3.18298 5.56335C3.29473 5.19735 2.79111 5.01832 2.68274 5.36707C2.62049 5.57032 2.71706 5.93752 3.23718 6.09802C3.84618 6.28515 4.36157 5.95325 4.43469 5.52087C4.48119 5.25012 4.35865 5.04904 4.1344 4.78992L3.95203 4.58777C3.8414 4.47639 3.80323 4.2883 3.9176 4.14392C4.01398 4.02167 4.15146 3.97 4.37683 4.03113C4.70571 4.12038 4.8523 4.34871 5.0968 4.53284C5.07918 4.59059 4.95236 4.99979 4.83386 5.71716C4.65911 6.63441 4.52522 7.13789 4.17834 7.42664C4.10859 7.47726 4.00865 7.55176 3.85828 7.55701C3.83015 7.55813 3.65423 7.51635 3.82898 7.3761C4.0491 7.25572 3.92977 6.87377 3.61365 6.88464C3.47115 6.88914 3.25457 7.02281 3.26282 7.26843C3.27107 7.52193 3.50715 7.7122 3.8634 7.69983C4.0539 7.69345 4.47871 7.61629 4.89758 7.11829C5.47321 6.44329 5.58278 5.64174 5.7384 4.78186C6.48503 4.87036 6.85449 4.52424 6.85974 4.26624C6.86762 3.91524 6.4546 3.92756 6.39685 4.19006C6.3691 4.31756 6.59134 4.43243 6.41809 4.54456C6.29547 4.62406 6.07525 4.68002 5.7655 4.63464C5.91438 3.81339 6.0417 3.00837 6.61658 2.98962C6.65595 2.98737 6.79924 2.9918 6.80261 3.0863C6.80449 3.1643 6.70438 3.22601 6.70813 3.35876C6.71375 3.50951 6.82802 3.60793 6.99377 3.60193C7.2154 3.59405 7.27877 3.37894 7.27502 3.26794C7.26565 3.00694 6.99094 2.8425 6.62756 2.85413Z" fill="black"/>
</svg>
